<?xml version="1.0" encoding="utf-8"?>
<!-- Generator: Adobe Illustrator 22.1.0, SVG Export Plug-In . SVG Version: 6.00 Build 0)  -->
<svg version="1.1" id="Layer_1" xmlns="http://www.w3.org/2000/svg" xmlns:xlink="http://www.w3.org/1999/xlink" x="0px" y="0px"
	 viewBox="0 0 468 80.1" style="enable-background:new 0 0 468 80.1;" xml:space="preserve">
<style type="text/css">
	.st0{fill:#005826;stroke:#005826;stroke-miterlimit:10;}
	.st1{fill:#FAA61A;}
	.st2{fill:#FAA61A;stroke:#005826;stroke-miterlimit:10;}
</style>
<g>
	<path class="st0" d="M147.8,44.8c-0.2-0.3-0.2-0.7,0.1-1.2c0.2-0.5,0.5-0.9,0.8-1.3c0.4-0.4,0.7-0.7,1.1-0.9s0.7-0.2,0.9,0
		c0.1,0.1,0.4,0.4,0.8,0.9c0.4,0.5,1,1.1,1.6,1.9c0.6,0.7,1.3,1.6,2.1,2.5c0.8,0.9,1.6,1.9,2.4,2.8c1.9,2.2,4,4.7,6.3,7.5
		c-0.8-3.8-1.5-7.2-2.1-10.3c-0.3-1.3-0.5-2.6-0.8-3.9c-0.3-1.3-0.5-2.4-0.7-3.5c-0.2-1-0.4-1.9-0.5-2.6c-0.1-0.7-0.2-1.1-0.3-1.3
		c-0.1-0.3,0-0.6,0.2-0.9c0.2-0.3,0.4-0.4,0.7-0.6c0.3-0.1,0.6-0.1,0.8,0c0.3,0.1,0.4,0.3,0.5,0.7c0.1,0.3,0.2,1,0.5,2.2
		c0.3,1.2,0.6,2.7,1,4.4c0.4,1.7,0.8,3.5,1.3,5.5s0.9,3.8,1.3,5.5c0.4,1.7,0.7,3.2,1,4.4c0.3,1.2,0.4,2,0.5,2.2
		c0,0.4-0.1,0.8-0.4,1.3s-0.7,0.9-1.2,1.3s-0.9,0.7-1.4,0.9s-0.9,0.2-1.1,0.1c-0.2-0.1-0.7-0.6-1.5-1.4s-1.7-1.8-2.7-2.9
		c-1.1-1.2-2.2-2.4-3.4-3.7c-1.2-1.3-2.3-2.6-3.4-3.9c-1.1-1.3-2-2.4-2.7-3.4S148.1,45.2,147.8,44.8z"/>
	<path class="st0" d="M172.2,50.5c0.6,0.9,1.1,1.6,1.6,1.9c0.5,0.3,1,0.4,1.5,0.3c0.5-0.1,0.9-0.4,1.3-0.8c0.4-0.4,0.8-0.9,1.1-1.5
		s0.6-1.1,0.9-1.7c0.3-0.6,0.5-1.1,0.7-1.5c0.1-0.3,0.3-0.4,0.6-0.4c0.3,0,0.6,0.1,0.9,0.3c0.3,0.2,0.5,0.4,0.7,0.7
		c0.2,0.3,0.2,0.6,0.1,0.9c-0.1,0.3-0.4,0.8-0.7,1.4c-0.3,0.6-0.7,1.2-1.2,1.8s-1,1.2-1.7,1.8c-0.6,0.6-1.3,1-2,1.4
		c-1.3,0.6-2.5,0.6-3.7,0.1s-2.2-1.5-3.1-3.1c-0.4-0.7-0.7-1.5-1-2.4c-0.3-0.9-0.4-1.9-0.4-2.8c0-1,0.2-1.9,0.5-2.8
		c0.3-0.9,0.9-1.7,1.7-2.3c0.8-0.6,1.5-1,2.3-1.1s1.5-0.1,2.2,0.1c0.7,0.2,1.2,0.4,1.7,0.7s0.8,0.5,0.9,0.7c0.3,0.4,0.5,0.8,0.6,1.3
		c0.1,0.4-0.1,0.9-0.5,1.3c-0.1,0.1-0.4,0.5-1,1.1c-0.5,0.6-1.1,1.2-1.7,1.9s-1.2,1.3-1.6,1.9C172.4,50.1,172.2,50.4,172.2,50.5z
		 M175.1,43.7c0,0-0.1-0.1-0.2-0.2c-0.2-0.1-0.4-0.3-0.7-0.4c-0.3-0.1-0.7-0.1-1.1-0.1s-0.9,0.3-1.4,0.6c-0.4,0.3-0.6,0.7-0.7,1.1
		c-0.1,0.5-0.2,0.9-0.1,1.3c0,0.4,0.1,1,0.3,1.6c0.8-0.8,1.5-1.5,2-2s0.9-1,1.4-1.4C174.9,44,175.1,43.7,175.1,43.7z"/>
	<path class="st0" d="M183.5,35.1c-0.1-0.2,0-0.5,0.3-0.8s0.6-0.6,1-0.8c0.4-0.2,0.8-0.4,1.2-0.5c0.4-0.1,0.7,0,0.8,0.3
		c0.1,0.2,0.3,0.7,0.7,1.4c0.4,0.8,0.8,1.8,1.3,2.9c0.5,1.2,1.1,2.5,1.7,3.9c0.6,1.4,1.2,2.9,1.7,4.4s1,2.9,1.5,4.3
		c0.4,1.4,0.7,2.6,0.9,3.7c0.1,1,0.1,1.8-0.1,2.6c-0.2,0.8-0.5,1.4-0.9,2s-0.9,1-1.5,1.4s-1.2,0.7-1.8,0.8c-1.2,0.4-2.4,0.4-3.6,0.1
		c-1.2-0.3-2.2-0.9-2.9-1.7c-0.2-0.2-0.3-0.5-0.2-0.8s0.2-0.6,0.5-0.9c0.2-0.3,0.5-0.5,0.8-0.6s0.5-0.1,0.7,0
		c0.8,0.7,1.7,1.1,2.5,1.3s1.5,0.2,2.1,0.1c0.6-0.1,1.1-0.4,1.5-0.8c0.4-0.4,0.6-0.9,0.7-1.4c0.1-0.6,0-1.4-0.3-2.4s-0.6-2-1-3
		c-0.5-1.2-1-2.4-1.6-3.8c-0.2,0.6-0.4,1.1-0.6,1.5c-0.2,0.4-0.5,0.8-0.9,1.1c-0.4,0.4-0.9,0.6-1.6,0.7c-1.1,0.2-2-0.1-2.8-0.9
		c-0.8-0.8-1.5-2.1-1.9-4.1c-0.3-0.9-0.4-1.8-0.3-2.7c0.1-0.9,0.2-1.6,0.5-2.3c0.3-0.7,0.6-1.4,1.1-2s1-1.1,1.5-1.6L183.5,35.1z
		 M184.9,38.4c-0.5,0.4-0.9,0.9-1.1,1.5c-0.2,0.7-0.4,1.4-0.4,2.1c0,0.8,0,1.5,0.2,2.3s0.4,1.4,0.7,2c0.3,0.5,0.6,0.9,1,1.2
		c0.4,0.2,0.8,0.2,1.2,0c0.5-0.3,0.8-0.9,0.7-1.8c0-0.9-0.2-1.8-0.5-2.8s-0.6-1.9-1-2.7C185.3,39.2,185,38.7,184.9,38.4z"/>
	<path class="st0" d="M196.5,28.7c-0.1-0.2,0.1-0.5,0.3-0.7c0.3-0.2,0.6-0.4,1-0.6c0.4-0.1,0.8-0.2,1.1-0.1c0.4,0,0.6,0.2,0.7,0.5
		c0,0.1,0.2,0.5,0.5,1.3s0.6,1.8,1,2.9c0.4,1.1,0.8,2.4,1.3,3.7c0.4,1.3,0.9,2.6,1.2,3.7c0.4,1.1,0.7,2.1,1,2.9s0.4,1.2,0.4,1.2
		c0.1,0.3,0.1,0.6-0.1,1c-0.2,0.3-0.5,0.6-0.8,0.8s-0.7,0.4-1,0.5s-0.6,0.1-0.7,0c-0.1-0.1-0.3-0.3-0.4-0.6
		c-0.2-0.3-0.3-0.6-0.5-0.9c-0.1-0.3-0.3-0.7-0.5-1.2c-0.2,0.5-0.6,1.1-1.3,1.6c-0.6,0.6-1.4,0.9-2.2,1.1c-0.8,0.2-1.7,0.1-2.6-0.3
		c-0.9-0.4-1.7-1.3-2.5-2.7c-0.8-1.6-1.2-3-1.2-4.4c0-1.4,0.2-2.6,0.7-3.7c0.5-1.1,1.2-1.9,2.1-2.6s1.9-1,3.1-1.1L196.5,28.7z
		 M198.1,34c-0.1,0-0.3,0-0.6-0.1c-0.3-0.1-0.7-0.1-1.1,0c-0.4,0.1-0.8,0.2-1.3,0.4c-0.4,0.2-0.8,0.6-1.1,1.2
		c-0.3,0.5-0.4,1.1-0.5,1.7c0,0.6,0,1.3,0.2,1.9c0.2,0.6,0.4,1.3,0.7,1.9c0.3,0.6,0.6,1.1,1,1.4s0.8,0.6,1.2,0.7
		c0.4,0.1,0.8,0,1.2-0.3c0.7-0.5,1.1-1.2,1.3-2.1c0.1-0.9,0.2-1.8,0-2.7c-0.1-0.9-0.3-1.7-0.6-2.5C198.4,34.8,198.2,34.3,198.1,34z"
		/>
	<path class="st0" d="M203.6,29.1c0-0.4,0.1-0.7,0.3-0.9c0.3-0.3,0.6-0.4,0.9-0.6c0.4-0.1,0.7-0.1,1-0.1s0.5,0.2,0.5,0.4
		c0.1,0.2,0.1,0.4,0.2,0.6c0.1,0.2,0.1,0.3,0.2,0.5c0.1,0.2,0.1,0.3,0.2,0.5c0.2-0.4,0.5-0.7,0.8-1.1c0.3-0.3,0.6-0.6,1-0.9
		s0.8-0.5,1.4-0.6c1-0.2,1.9-0.2,2.7,0.2c0.8,0.4,1.5,0.9,2.1,1.6s1.1,1.6,1.5,2.6s0.8,2,1.1,3.1c0.3,1.1,0.5,2.1,0.7,3.1
		c0.2,1,0.3,1.9,0.5,2.7c0.1,0.3,0,0.6-0.3,0.8c-0.2,0.2-0.5,0.4-0.8,0.5s-0.6,0.1-0.9,0c-0.3-0.1-0.5-0.2-0.6-0.5
		c-0.3-1.2-0.6-2.5-0.9-3.9c-0.3-1.4-0.7-2.8-1.1-4c-0.4-1.2-0.9-2.2-1.4-3c-0.6-0.8-1.2-1.1-2-1c-0.4,0.1-0.8,0.3-1.1,0.6
		c-0.3,0.3-0.6,0.6-0.8,1s-0.4,0.8-0.5,1.2s-0.1,0.7,0,1c0.1,0.4,0.2,1.1,0.4,2c0.2,0.9,0.4,1.9,0.6,2.9c0.2,1,0.4,1.9,0.6,2.7
		c0.2,0.8,0.3,1.3,0.3,1.5c0.1,0.3-0.1,0.7-0.4,1c-0.4,0.3-0.8,0.5-1.3,0.7s-1,0.2-1.4,0.2c-0.5,0-0.7-0.3-0.8-0.6
		c-0.1-0.2-0.2-0.7-0.3-1.4s-0.3-1.6-0.5-2.5c-0.2-1-0.4-2-0.6-3.1c-0.2-1.1-0.4-2.1-0.6-3.1c-0.2-1-0.3-1.8-0.4-2.5
		C203.7,29.8,203.6,29.3,203.6,29.1z"/>
	<path class="st0" d="M224.6,25.8c0.2,0,0.4,0.1,0.5,0.3c0.2,0.2,0.3,0.5,0.3,0.8s0,0.6,0,0.9s-0.2,0.4-0.3,0.5l-6.3,1.4
		c-0.2,0-0.3-0.1-0.5-0.4c-0.1-0.3-0.2-0.6-0.3-0.9c-0.1-0.4,0-0.7,0-1c0.1-0.3,0.2-0.5,0.4-0.5L224.6,25.8z"/>
	<path class="st0" d="M226.8,14.4c0-0.5,0.2-0.9,0.6-1.1c0.5-0.2,1-0.3,1.5-0.3c0.6,0,1.1,0.1,1.5,0.2c0.5,0.1,0.7,0.3,0.7,0.5
		l0.1,1.6c0.3,0,0.8,0,1.3,0s1.2,0.1,1.8,0.2c0.6,0.1,1.3,0.2,2,0.4s1.3,0.4,1.9,0.7c1.4,0.7,2.6,1.8,3.4,3.3c0.8,1.4,1.4,3,1.6,4.7
		c0.2,1.7,0,3.4-0.5,5.1s-1.4,3.2-2.7,4.6c-0.8,0.8-1.7,1.6-2.7,2.2s-2,1.2-3.1,1.7s-2.2,0.9-3.4,1.3c-1.2,0.4-2.3,0.7-3.5,1
		c-0.3,0.1-0.5,0-0.7-0.2c-0.1-0.2-0.2-0.4-0.2-0.7s0-0.6,0.1-0.8c0.1-0.3,0.2-0.4,0.4-0.4c0.2-0.1,0.4-0.1,0.6-0.2
		c0.2-0.1,0.3-0.1,0.5-0.1c0.1,0,0.3-0.1,0.4-0.1c-0.3-4-0.6-7.6-0.8-10.9c-0.1-1.4-0.2-2.8-0.3-4.1s-0.2-2.6-0.3-3.8
		c-0.1-1.1-0.2-2.1-0.2-2.9C226.9,15.2,226.9,14.7,226.8,14.4z M233.5,36.2c0.6-0.3,1.3-0.6,2-1c0.7-0.4,1.5-1,2.2-1.8
		c0.6-0.6,1.2-1.4,1.5-2.3c0.4-0.9,0.6-1.9,0.8-2.9c0.1-1,0.1-2,0-3.1c-0.1-1-0.3-2-0.6-2.9s-0.8-1.7-1.3-2.4
		c-0.5-0.7-1.2-1.2-1.9-1.5c-1.4-0.6-2.9-0.8-4.6-0.6L233.5,36.2z"/>
	<path class="st0" d="M247,25.5c0.9-0.6,1.8-0.8,2.8-0.7c1,0.1,1.9,0.5,2.8,1.1c0.9,0.6,1.6,1.4,2.2,2.4c0.6,1,1,2,1.2,3.2
		c0.2,1.1,0.1,2.2-0.3,3.2c-0.4,1-1,1.8-1.7,2.5s-1.6,1.1-2.6,1.4c-1,0.3-2.1,0.2-3.2-0.2c-0.8-0.3-1.5-0.8-2.1-1.4
		c-0.6-0.6-1-1.3-1.3-2.1s-0.5-1.6-0.6-2.5c-0.1-0.9,0-1.7,0.2-2.6c0.2-0.8,0.5-1.6,0.9-2.4C245.8,26.5,246.3,25.9,247,25.5z
		 M249.1,27.6c-0.4,0.2-0.8,0.6-1.1,1.3c-0.3,0.7-0.4,1.4-0.4,2.2c0,0.8,0.1,1.6,0.4,2.4c0.3,0.8,0.8,1.4,1.5,1.9
		c0.5,0.3,1.1,0.5,1.6,0.4c0.5-0.1,1-0.3,1.4-0.6s0.7-0.7,1-1.3c0.2-0.5,0.4-1,0.3-1.6c0-0.7-0.2-1.4-0.5-2
		c-0.3-0.7-0.7-1.2-1.1-1.7c-0.5-0.5-1-0.8-1.5-1C250.1,27.4,249.6,27.4,249.1,27.6z"/>
	<path class="st0" d="M265.3,26.9c0.2,0,0.4,0.2,0.4,0.5c0.1,0.3,0.1,0.6,0.1,0.9s-0.1,0.6-0.2,0.8s-0.3,0.4-0.4,0.4l-6.3-0.6
		c-0.2,0-0.3-0.2-0.4-0.5c-0.1-0.3-0.1-0.6-0.1-1s0.1-0.7,0.3-1c0.1-0.3,0.3-0.4,0.6-0.4L265.3,26.9z"/>
	<path class="st0" d="M268.6,17.3c0.2,0,0.6,0.1,1.2,0.2c0.6,0.1,1.4,0.2,2.2,0.4c0.9,0.2,1.8,0.3,2.7,0.5c1,0.2,1.9,0.3,2.7,0.5
		c0.9,0.2,1.6,0.3,2.2,0.4c0.6,0.1,1,0.2,1.2,0.2c0.3,0,0.4,0.2,0.5,0.5c0.1,0.3,0.1,0.6,0.1,1c0,0.4-0.1,0.7-0.3,1
		c-0.1,0.3-0.3,0.4-0.5,0.4c-0.2,0-0.5-0.1-1-0.2s-1-0.2-1.5-0.3c-0.6-0.1-1.3-0.2-2-0.3L273.4,40c0.5,0.1,1,0.2,1.5,0.2
		c0.4,0.1,0.8,0.2,1.3,0.3s0.9,0.3,1.2,0.4c0.2,0.1,0.3,0.3,0.3,0.5c0,0.3,0,0.6-0.1,0.9c-0.1,0.3-0.2,0.6-0.3,0.8s-0.3,0.3-0.4,0.3
		c-2.5-0.4-4.6-0.8-6.4-1.1s-3.5-0.5-4.9-0.7c-0.3,0-0.4-0.2-0.5-0.4s-0.2-0.5-0.2-0.8s0-0.5,0.1-0.8c0.1-0.2,0.2-0.4,0.3-0.5
		c0.2-0.1,0.5-0.1,0.9-0.1c0.5,0,0.9,0,1.4,0.1c0.6,0,1.2,0.1,1.9,0.2l2.6-18.6c-0.6-0.1-1.2-0.2-1.8-0.3c-0.5-0.1-1-0.1-1.4-0.2
		c-0.4-0.1-0.7-0.2-0.9-0.2c-0.2-0.1-0.3-0.2-0.4-0.5c-0.1-0.3-0.1-0.6,0-0.9c0-0.3,0.1-0.6,0.3-0.9S268.4,17.3,268.6,17.3z"/>
	<path class="st0" d="M285.1,23.9c0.1-0.3,0.3-0.4,0.7-0.5c0.4-0.1,0.8,0,1.2,0.2s0.8,0.4,1.1,0.7s0.4,0.6,0.3,0.9
		c-0.1,0.2-0.2,0.7-0.4,1.5c-0.2,0.8-0.4,1.5-0.6,2.3l-0.9,3.1c0.6,0.2,1.2,0.3,1.7,0.5c0.5,0.1,0.9,0.2,1.4,0.4
		c0.4,0.1,0.8,0.2,1.1,0.3c0.2,0.1,0.4,0.3,0.5,0.5c0.1,0.3,0.1,0.5,0,0.8s-0.2,0.5-0.3,0.8c-0.1,0.2-0.3,0.3-0.5,0.3
		c-0.2,0-0.6-0.1-1.1-0.2c-0.5-0.1-1-0.3-1.5-0.4c-0.6-0.1-1.3-0.3-2-0.5c-0.6,2.1-1.1,4-1.6,5.7c-0.2,0.7-0.4,1.5-0.6,2.1
		c-0.2,0.7-0.4,1.3-0.5,1.9c-0.2,0.6-0.3,1.1-0.4,1.5c-0.1,0.4-0.2,0.7-0.2,0.8c-0.1,0.3-0.4,0.5-0.7,0.6c-0.4,0.1-0.7,0-1.1-0.1
		c-0.4-0.1-0.6-0.3-0.9-0.6c-0.2-0.3-0.3-0.6-0.2-0.9c0-0.1,0.1-0.4,0.2-0.8c0.1-0.4,0.2-0.9,0.4-1.5c0.2-0.6,0.3-1.2,0.5-1.9
		c0.2-0.7,0.3-1.4,0.5-2.1c0.4-1.6,0.9-3.4,1.4-5.4c-0.5-0.1-0.9-0.2-1.3-0.4c-0.4-0.1-0.7-0.2-1-0.3s-0.6-0.2-0.7-0.3
		c-0.1-0.1-0.2-0.2-0.3-0.5c0-0.2,0-0.5,0.1-0.7c0.1-0.3,0.2-0.5,0.3-0.7c0.1-0.2,0.3-0.3,0.5-0.2c0.2,0,0.4,0.1,0.8,0.2
		c0.3,0.1,0.7,0.2,1,0.2c0.4,0.1,0.8,0.2,1.3,0.3c0.3-1.2,0.6-2.2,0.9-3.2L285.1,23.9z"/>
	<path class="st0" d="M287.1,47.9c0.1-0.3,0.2-0.4,0.4-0.5s0.4-0.1,0.6,0c0.2,0.1,0.4,0.3,0.5,0.5s0.1,0.5,0,0.7s-0.2,0.4-0.4,0.5
		s-0.4,0.1-0.7,0c-0.2-0.1-0.3-0.3-0.4-0.5C287.1,48.4,287.1,48.2,287.1,47.9z"/>
	<path class="st0" d="M294.2,46.2c0-0.2,0-0.3,0-0.6c0-0.2,0-0.5,0-0.7s-0.1-0.5-0.2-0.7c-0.1-0.2-0.3-0.4-0.5-0.5
		c-0.1-0.1-0.3,0-0.5,0.1s-0.3,0.3-0.5,0.5c-0.2,0.3-0.3,0.6-0.5,0.9c-0.2,0.4-0.3,0.7-0.4,1.2c-0.2,0.9-0.3,1.6-0.2,2.2
		c0.1,0.6,0.3,0.9,0.7,1.1c0.3,0.1,0.6,0.1,0.9,0.1c0.3-0.1,0.6-0.1,0.9-0.2c0.3-0.1,0.5-0.2,0.8-0.3c0.2-0.1,0.4-0.1,0.5-0.1
		c0.2,0,0.4,0.2,0.5,0.5c0.1,0.3,0.1,0.6,0,0.8c0,0.1-0.2,0.3-0.4,0.4c-0.2,0.2-0.6,0.3-0.9,0.4c-0.4,0.1-0.8,0.1-1.3,0.1
		s-1-0.2-1.5-0.4c-0.9-0.4-1.5-1.1-1.8-2c-0.3-1-0.2-2.1,0.2-3.3c0.1-0.3,0.3-0.8,0.5-1.2s0.5-0.9,0.9-1.2c0.3-0.4,0.7-0.6,1.1-0.8
		c0.4-0.2,0.9-0.1,1.3,0.1c0.5,0.2,0.9,0.5,1.1,0.9c0.2,0.4,0.4,0.8,0.5,1.1c0.1,0.4,0.1,0.7,0.1,1.1c0,0.3-0.1,0.6-0.1,0.7
		c0,0.2-0.1,0.3-0.3,0.4c-0.1,0.1-0.3,0.1-0.4,0.1c-0.2,0-0.3-0.1-0.4-0.2C294.3,46.5,294.2,46.4,294.2,46.2z"/>
	<path class="st0" d="M299.1,46.4c0.6-0.1,1.1,0,1.6,0.4c0.5,0.3,0.9,0.8,1.2,1.3c0.3,0.5,0.6,1.2,0.7,1.8c0.1,0.7,0.1,1.3,0,2
		c-0.1,0.6-0.4,1.2-0.8,1.6c-0.4,0.4-0.9,0.7-1.4,0.9s-1.1,0.2-1.7,0c-0.6-0.1-1.1-0.4-1.6-0.9c-0.4-0.4-0.6-0.8-0.8-1.3
		c-0.2-0.5-0.3-1-0.3-1.5s0.1-1,0.2-1.5c0.1-0.5,0.3-0.9,0.6-1.3c0.3-0.4,0.6-0.7,0.9-1C298.2,46.6,298.6,46.4,299.1,46.4z
		 M299.8,48.1c-0.3,0-0.5,0.1-0.8,0.4c-0.3,0.3-0.5,0.6-0.6,1c-0.2,0.4-0.2,0.9-0.2,1.4s0.1,0.9,0.4,1.4c0.2,0.3,0.5,0.5,0.8,0.6
		s0.6,0.1,0.8,0.1c0.3-0.1,0.5-0.2,0.8-0.4s0.4-0.5,0.5-0.7c0.1-0.4,0.2-0.8,0.1-1.2c0-0.4-0.1-0.8-0.3-1.2
		c-0.2-0.4-0.4-0.7-0.6-0.9C300.3,48.2,300.1,48.1,299.8,48.1z"/>
	<path class="st0" d="M305.4,47.8c0.1-0.2,0.3-0.3,0.5-0.3s0.4,0.1,0.6,0.2c0.2,0.1,0.3,0.3,0.4,0.5s0.1,0.4,0.1,0.5
		s-0.1,0.2-0.2,0.4c-0.1,0.1-0.1,0.3-0.2,0.4c-0.1,0.1-0.1,0.3-0.1,0.3c0,0.1-0.1,0.1,0,0.1c0,0,0.1-0.1,0.2-0.2
		c0.1-0.1,0.3-0.2,0.5-0.2c0.2-0.1,0.4-0.1,0.7-0.1s0.5,0.1,0.8,0.3c0.3,0.2,0.5,0.5,0.6,0.9c0.1,0.4,0.1,0.7,0.1,1
		c0,0.4-0.1,0.8-0.2,1.2c0.3-0.2,0.5-0.3,0.8-0.4c0.2-0.1,0.5-0.1,0.8-0.1s0.6,0.1,0.9,0.3c0.5,0.3,0.8,0.8,0.9,1.4
		c0.1,0.6,0.2,1.2,0.1,1.9s-0.2,1.4-0.4,2.1c-0.2,0.7-0.4,1.3-0.7,1.9c-0.2,0.6-0.5,1.1-0.6,1.5c-0.2,0.4-0.3,0.7-0.3,0.7
		c0,0.1-0.2,0.2-0.3,0.2c-0.2,0-0.3,0-0.5-0.1c-0.2-0.1-0.3-0.2-0.4-0.3c-0.1-0.1-0.2-0.3-0.1-0.5c0-0.1,0.1-0.4,0.3-0.7
		c0.1-0.4,0.3-0.8,0.5-1.3s0.4-1,0.6-1.6s0.4-1.1,0.5-1.6s0.2-1,0.2-1.4s-0.1-0.7-0.2-0.8c-0.2-0.2-0.4-0.2-0.6-0.1
		c-0.2,0.1-0.4,0.3-0.7,0.6s-0.5,0.7-0.7,1.1c-0.2,0.5-0.5,0.9-0.7,1.4s-0.4,1-0.7,1.4c-0.2,0.5-0.4,0.9-0.6,1.2
		c-0.1,0.1-0.2,0.2-0.4,0.2c-0.2,0-0.4-0.1-0.6-0.3c-0.2-0.1-0.4-0.3-0.5-0.5c-0.1-0.2-0.2-0.4-0.1-0.6c0-0.1,0.1-0.3,0.3-0.6
		s0.4-0.7,0.6-1.1c0.2-0.4,0.5-0.9,0.7-1.4c0.2-0.5,0.5-1,0.7-1.5c0.4-1,0.5-1.7,0.5-2.2c-0.1-0.5-0.2-0.8-0.5-0.8
		c-0.3-0.1-0.6,0.1-1,0.4c-0.4,0.3-0.7,0.8-1.1,1.4c-0.1,0.3-0.3,0.6-0.4,0.9c-0.2,0.3-0.3,0.7-0.5,1c-0.2,0.4-0.4,0.8-0.6,1.3
		c-0.2,0.5-0.5,1-0.7,1.6c-0.1,0.2-0.2,0.2-0.5,0.2c-0.3,0-0.5-0.1-0.8-0.3c-0.3-0.1-0.5-0.3-0.6-0.5c-0.2-0.2-0.2-0.4-0.1-0.6
		c0-0.1,0.2-0.4,0.4-0.8c0.2-0.4,0.4-0.9,0.7-1.5c0.3-0.6,0.6-1.2,0.9-1.9s0.6-1.3,0.9-1.9c0.3-0.6,0.6-1.1,0.8-1.6
		C305.1,48.2,305.3,47.9,305.4,47.8z"/>
</g>
<g>
	<path class="st1" d="M147.8,44.8c-0.2-0.3-0.2-0.7,0.1-1.2c0.2-0.5,0.5-0.9,0.8-1.3c0.4-0.4,0.7-0.7,1.1-0.9s0.7-0.2,0.9,0
		c0.1,0.1,0.4,0.4,0.8,0.9c0.4,0.5,1,1.1,1.6,1.9c0.6,0.7,1.3,1.6,2.1,2.5c0.8,0.9,1.6,1.9,2.4,2.8c1.9,2.2,4,4.7,6.3,7.5
		c-0.8-3.8-1.5-7.2-2.1-10.3c-0.3-1.3-0.5-2.6-0.8-3.9c-0.3-1.3-0.5-2.4-0.7-3.5c-0.2-1-0.4-1.9-0.5-2.6c-0.1-0.7-0.2-1.1-0.3-1.3
		c-0.1-0.3,0-0.6,0.2-0.9c0.2-0.3,0.4-0.4,0.7-0.6c0.3-0.1,0.6-0.1,0.8,0c0.3,0.1,0.4,0.3,0.5,0.7c0.1,0.3,0.2,1,0.5,2.2
		c0.3,1.2,0.6,2.7,1,4.4c0.4,1.7,0.8,3.5,1.3,5.5s0.9,3.8,1.3,5.5c0.4,1.7,0.7,3.2,1,4.4c0.3,1.2,0.4,2,0.5,2.2
		c0,0.4-0.1,0.8-0.4,1.3s-0.7,0.9-1.2,1.3s-0.9,0.7-1.4,0.9s-0.9,0.2-1.1,0.1c-0.2-0.1-0.7-0.6-1.5-1.4s-1.7-1.8-2.7-2.9
		c-1.1-1.2-2.2-2.4-3.4-3.7c-1.2-1.3-2.3-2.6-3.4-3.9c-1.1-1.3-2-2.4-2.7-3.4S148.1,45.2,147.8,44.8z"/>
	<path class="st1" d="M172.2,50.5c0.6,0.9,1.1,1.6,1.6,1.9c0.5,0.3,1,0.4,1.5,0.3c0.5-0.1,0.9-0.4,1.3-0.8c0.4-0.4,0.8-0.9,1.1-1.5
		s0.6-1.1,0.9-1.7c0.3-0.6,0.5-1.1,0.7-1.5c0.1-0.3,0.3-0.4,0.6-0.4c0.3,0,0.6,0.1,0.9,0.3c0.3,0.2,0.5,0.4,0.7,0.7
		c0.2,0.3,0.2,0.6,0.1,0.9c-0.1,0.3-0.4,0.8-0.7,1.4c-0.3,0.6-0.7,1.2-1.2,1.8s-1,1.2-1.7,1.8c-0.6,0.6-1.3,1-2,1.4
		c-1.3,0.6-2.5,0.6-3.7,0.1s-2.2-1.5-3.1-3.1c-0.4-0.7-0.7-1.5-1-2.4c-0.3-0.9-0.4-1.9-0.4-2.8c0-1,0.2-1.9,0.5-2.8
		c0.3-0.9,0.9-1.7,1.7-2.3c0.8-0.6,1.5-1,2.3-1.1s1.5-0.1,2.2,0.1c0.7,0.2,1.2,0.4,1.7,0.7s0.8,0.5,0.9,0.7c0.3,0.4,0.5,0.8,0.6,1.3
		c0.1,0.4-0.1,0.9-0.5,1.3c-0.1,0.1-0.4,0.5-1,1.1c-0.5,0.6-1.1,1.2-1.7,1.9s-1.2,1.3-1.6,1.9C172.4,50.1,172.2,50.4,172.2,50.5z
		 M175.1,43.7c0,0-0.1-0.1-0.2-0.2c-0.2-0.1-0.4-0.3-0.7-0.4c-0.3-0.1-0.7-0.1-1.1-0.1s-0.9,0.3-1.4,0.6c-0.4,0.3-0.6,0.7-0.7,1.1
		c-0.1,0.5-0.2,0.9-0.1,1.3c0,0.4,0.1,1,0.3,1.6c0.8-0.8,1.5-1.5,2-2s0.9-1,1.4-1.4C174.9,44,175.1,43.7,175.1,43.7z"/>
	<path class="st1" d="M183.5,35.1c-0.1-0.2,0-0.5,0.3-0.8s0.6-0.6,1-0.8c0.4-0.2,0.8-0.4,1.2-0.5c0.4-0.1,0.7,0,0.8,0.3
		c0.1,0.2,0.3,0.7,0.7,1.4c0.4,0.8,0.8,1.8,1.3,2.9c0.5,1.2,1.1,2.5,1.7,3.9c0.6,1.4,1.2,2.9,1.7,4.4s1,2.9,1.5,4.3
		c0.4,1.4,0.7,2.6,0.9,3.7c0.1,1,0.1,1.8-0.1,2.6c-0.2,0.8-0.5,1.4-0.9,2s-0.9,1-1.5,1.4s-1.2,0.7-1.8,0.8c-1.2,0.4-2.4,0.4-3.6,0.1
		c-1.2-0.3-2.2-0.9-2.9-1.7c-0.2-0.2-0.3-0.5-0.2-0.8s0.2-0.6,0.5-0.9c0.2-0.3,0.5-0.5,0.8-0.6s0.5-0.1,0.7,0
		c0.8,0.7,1.7,1.1,2.5,1.3s1.5,0.2,2.1,0.1c0.6-0.1,1.1-0.4,1.5-0.8c0.4-0.4,0.6-0.9,0.7-1.4c0.1-0.6,0-1.4-0.3-2.4s-0.6-2-1-3
		c-0.5-1.2-1-2.4-1.6-3.8c-0.2,0.6-0.4,1.1-0.6,1.5c-0.2,0.4-0.5,0.8-0.9,1.1c-0.4,0.4-0.9,0.6-1.6,0.7c-1.1,0.2-2-0.1-2.8-0.9
		c-0.8-0.8-1.5-2.1-1.9-4.1c-0.3-0.9-0.4-1.8-0.3-2.7c0.1-0.9,0.2-1.6,0.5-2.3c0.3-0.7,0.6-1.4,1.1-2s1-1.1,1.5-1.6L183.5,35.1z
		 M184.9,38.4c-0.5,0.4-0.9,0.9-1.1,1.5c-0.2,0.7-0.4,1.4-0.4,2.1c0,0.8,0,1.5,0.2,2.3s0.4,1.4,0.7,2c0.3,0.5,0.6,0.9,1,1.2
		c0.4,0.2,0.8,0.2,1.2,0c0.5-0.3,0.8-0.9,0.7-1.8c0-0.9-0.2-1.8-0.5-2.8s-0.6-1.9-1-2.7C185.3,39.2,185,38.7,184.9,38.4z"/>
	<path class="st1" d="M196.5,28.7c-0.1-0.2,0.1-0.5,0.3-0.7c0.3-0.2,0.6-0.4,1-0.6c0.4-0.1,0.8-0.2,1.1-0.1c0.4,0,0.6,0.2,0.7,0.5
		c0,0.1,0.2,0.5,0.5,1.3s0.6,1.8,1,2.9c0.4,1.1,0.8,2.4,1.3,3.7c0.4,1.3,0.9,2.6,1.2,3.7c0.4,1.1,0.7,2.1,1,2.9s0.4,1.2,0.4,1.2
		c0.1,0.3,0.1,0.6-0.1,1c-0.2,0.3-0.5,0.6-0.8,0.8s-0.7,0.4-1,0.5s-0.6,0.1-0.7,0c-0.1-0.1-0.3-0.3-0.4-0.6
		c-0.2-0.3-0.3-0.6-0.5-0.9c-0.1-0.3-0.3-0.7-0.5-1.2c-0.2,0.5-0.6,1.1-1.3,1.6c-0.6,0.6-1.4,0.9-2.2,1.1c-0.8,0.2-1.7,0.1-2.6-0.3
		c-0.9-0.4-1.7-1.3-2.5-2.7c-0.8-1.6-1.2-3-1.2-4.4c0-1.4,0.2-2.6,0.7-3.7c0.5-1.1,1.2-1.9,2.1-2.6s1.9-1,3.1-1.1L196.5,28.7z
		 M198.1,34c-0.1,0-0.3,0-0.6-0.1c-0.3-0.1-0.7-0.1-1.1,0c-0.4,0.1-0.8,0.2-1.3,0.4c-0.4,0.2-0.8,0.6-1.1,1.2
		c-0.3,0.5-0.4,1.1-0.5,1.7c0,0.6,0,1.3,0.2,1.9c0.2,0.6,0.4,1.3,0.7,1.9c0.3,0.6,0.6,1.1,1,1.4s0.8,0.6,1.2,0.7
		c0.4,0.1,0.8,0,1.2-0.3c0.7-0.5,1.1-1.2,1.3-2.1c0.1-0.9,0.2-1.8,0-2.7c-0.1-0.9-0.3-1.7-0.6-2.5C198.4,34.8,198.2,34.3,198.1,34z"
		/>
	<path class="st1" d="M203.6,29.1c0-0.4,0.1-0.7,0.3-0.9c0.3-0.3,0.6-0.4,0.9-0.6c0.4-0.1,0.7-0.1,1-0.1s0.5,0.2,0.5,0.4
		c0.1,0.2,0.1,0.4,0.2,0.6c0.1,0.2,0.1,0.3,0.2,0.5c0.1,0.2,0.1,0.3,0.2,0.5c0.2-0.4,0.5-0.7,0.8-1.1c0.3-0.3,0.6-0.6,1-0.9
		s0.8-0.5,1.4-0.6c1-0.2,1.9-0.2,2.7,0.2c0.8,0.4,1.5,0.9,2.1,1.6s1.1,1.6,1.5,2.6s0.8,2,1.1,3.1c0.3,1.1,0.5,2.1,0.7,3.1
		c0.2,1,0.3,1.9,0.5,2.7c0.1,0.3,0,0.6-0.3,0.8c-0.2,0.2-0.5,0.4-0.8,0.5s-0.6,0.1-0.9,0c-0.3-0.1-0.5-0.2-0.6-0.5
		c-0.3-1.2-0.6-2.5-0.9-3.9c-0.3-1.4-0.7-2.8-1.1-4c-0.4-1.2-0.9-2.2-1.4-3c-0.6-0.8-1.2-1.1-2-1c-0.4,0.1-0.8,0.3-1.1,0.6
		c-0.3,0.3-0.6,0.6-0.8,1s-0.4,0.8-0.5,1.2s-0.1,0.7,0,1c0.1,0.4,0.2,1.1,0.4,2c0.2,0.9,0.4,1.9,0.6,2.9c0.2,1,0.4,1.9,0.6,2.7
		c0.2,0.8,0.3,1.3,0.3,1.5c0.1,0.3-0.1,0.7-0.4,1c-0.4,0.3-0.8,0.5-1.3,0.7s-1,0.2-1.4,0.2c-0.5,0-0.7-0.3-0.8-0.6
		c-0.1-0.2-0.2-0.7-0.3-1.4s-0.3-1.6-0.5-2.5c-0.2-1-0.4-2-0.6-3.1c-0.2-1.1-0.4-2.1-0.6-3.1c-0.2-1-0.3-1.8-0.4-2.5
		C203.7,29.8,203.6,29.3,203.6,29.1z"/>
	<path class="st1" d="M224.6,25.8c0.2,0,0.4,0.1,0.5,0.3c0.2,0.2,0.3,0.5,0.3,0.8s0,0.6,0,0.9s-0.2,0.4-0.3,0.5l-6.3,1.4
		c-0.2,0-0.3-0.1-0.5-0.4c-0.1-0.3-0.2-0.6-0.3-0.9c-0.1-0.4,0-0.7,0-1c0.1-0.3,0.2-0.5,0.4-0.5L224.6,25.8z"/>
	<path class="st1" d="M226.8,14.4c0-0.5,0.2-0.9,0.6-1.1c0.5-0.2,1-0.3,1.5-0.3c0.6,0,1.1,0.1,1.5,0.2c0.5,0.1,0.7,0.3,0.7,0.5
		l0.1,1.6c0.3,0,0.8,0,1.3,0s1.2,0.1,1.8,0.2c0.6,0.1,1.3,0.2,2,0.4s1.3,0.4,1.9,0.7c1.4,0.7,2.6,1.8,3.4,3.3c0.8,1.4,1.4,3,1.6,4.7
		c0.2,1.7,0,3.4-0.5,5.1s-1.4,3.2-2.7,4.6c-0.8,0.8-1.7,1.6-2.7,2.2s-2,1.2-3.1,1.7s-2.2,0.9-3.4,1.3c-1.2,0.4-2.3,0.7-3.5,1
		c-0.3,0.1-0.5,0-0.7-0.2c-0.1-0.2-0.2-0.4-0.2-0.7s0-0.6,0.1-0.8c0.1-0.3,0.2-0.4,0.4-0.4c0.2-0.1,0.4-0.1,0.6-0.2
		c0.2-0.1,0.3-0.1,0.5-0.1c0.1,0,0.3-0.1,0.4-0.1c-0.3-4-0.6-7.6-0.8-10.9c-0.1-1.4-0.2-2.8-0.3-4.1s-0.2-2.6-0.3-3.8
		c-0.1-1.1-0.2-2.1-0.2-2.9C226.9,15.2,226.9,14.7,226.8,14.4z M233.5,36.2c0.6-0.3,1.3-0.6,2-1c0.7-0.4,1.5-1,2.2-1.8
		c0.6-0.6,1.2-1.4,1.5-2.3c0.4-0.9,0.6-1.9,0.8-2.9c0.1-1,0.1-2,0-3.1c-0.1-1-0.3-2-0.6-2.9s-0.8-1.7-1.3-2.4
		c-0.5-0.7-1.2-1.2-1.9-1.5c-1.4-0.6-2.9-0.8-4.6-0.6L233.5,36.2z"/>
	<path class="st1" d="M247,25.5c0.9-0.6,1.8-0.8,2.8-0.7c1,0.1,1.9,0.5,2.8,1.1c0.9,0.6,1.6,1.4,2.2,2.4c0.6,1,1,2,1.2,3.2
		c0.2,1.1,0.1,2.2-0.3,3.2c-0.4,1-1,1.8-1.7,2.5s-1.6,1.1-2.6,1.4c-1,0.3-2.1,0.2-3.2-0.2c-0.8-0.3-1.5-0.8-2.1-1.4
		c-0.6-0.6-1-1.3-1.3-2.1s-0.5-1.6-0.6-2.5c-0.1-0.9,0-1.7,0.2-2.6c0.2-0.8,0.5-1.6,0.9-2.4C245.8,26.5,246.3,25.9,247,25.5z
		 M249.1,27.6c-0.4,0.2-0.8,0.6-1.1,1.3c-0.3,0.7-0.4,1.4-0.4,2.2c0,0.8,0.1,1.6,0.4,2.4c0.3,0.8,0.8,1.4,1.5,1.9
		c0.5,0.3,1.1,0.5,1.6,0.4c0.5-0.1,1-0.3,1.4-0.6s0.7-0.7,1-1.3c0.2-0.5,0.4-1,0.3-1.6c0-0.7-0.2-1.4-0.5-2
		c-0.3-0.7-0.7-1.2-1.1-1.7c-0.5-0.5-1-0.8-1.5-1C250.1,27.4,249.6,27.4,249.1,27.6z"/>
	<path class="st1" d="M265.3,26.9c0.2,0,0.4,0.2,0.4,0.5c0.1,0.3,0.1,0.6,0.1,0.9s-0.1,0.6-0.2,0.8s-0.3,0.4-0.4,0.4l-6.3-0.6
		c-0.2,0-0.3-0.2-0.4-0.5c-0.1-0.3-0.1-0.6-0.1-1s0.1-0.7,0.3-1c0.1-0.3,0.3-0.4,0.6-0.4L265.3,26.9z"/>
	<path class="st1" d="M268.6,17.3c0.2,0,0.6,0.1,1.2,0.2c0.6,0.1,1.4,0.2,2.2,0.4c0.9,0.2,1.8,0.3,2.7,0.5c1,0.2,1.9,0.3,2.7,0.5
		c0.9,0.2,1.6,0.3,2.2,0.4c0.6,0.1,1,0.2,1.2,0.2c0.3,0,0.4,0.2,0.5,0.5c0.1,0.3,0.1,0.6,0.1,1c0,0.4-0.1,0.7-0.3,1
		c-0.1,0.3-0.3,0.4-0.5,0.4c-0.2,0-0.5-0.1-1-0.2s-1-0.2-1.5-0.3c-0.6-0.1-1.3-0.2-2-0.3L273.4,40c0.5,0.1,1,0.2,1.5,0.2
		c0.4,0.1,0.8,0.2,1.3,0.3s0.9,0.3,1.2,0.4c0.2,0.1,0.3,0.3,0.3,0.5c0,0.3,0,0.6-0.1,0.9c-0.1,0.3-0.2,0.6-0.3,0.8s-0.3,0.3-0.4,0.3
		c-2.5-0.4-4.6-0.8-6.4-1.1s-3.5-0.5-4.9-0.7c-0.3,0-0.4-0.2-0.5-0.4s-0.2-0.5-0.2-0.8s0-0.5,0.1-0.8c0.1-0.2,0.2-0.4,0.3-0.5
		c0.2-0.1,0.5-0.1,0.9-0.1c0.5,0,0.9,0,1.4,0.1c0.6,0,1.2,0.1,1.9,0.2l2.6-18.6c-0.6-0.1-1.2-0.2-1.8-0.3c-0.5-0.1-1-0.1-1.4-0.2
		c-0.4-0.1-0.7-0.2-0.9-0.2c-0.2-0.1-0.3-0.2-0.4-0.5c-0.1-0.3-0.1-0.6,0-0.9c0-0.3,0.1-0.6,0.3-0.9S268.4,17.3,268.6,17.3z"/>
	<path class="st1" d="M285.1,23.9c0.1-0.3,0.3-0.4,0.7-0.5c0.4-0.1,0.8,0,1.2,0.2s0.8,0.4,1.1,0.7s0.4,0.6,0.3,0.9
		c-0.1,0.2-0.2,0.7-0.4,1.5c-0.2,0.8-0.4,1.5-0.6,2.3l-0.9,3.1c0.6,0.2,1.2,0.3,1.7,0.5c0.5,0.1,0.9,0.2,1.4,0.4
		c0.4,0.1,0.8,0.2,1.1,0.3c0.2,0.1,0.4,0.3,0.5,0.5c0.1,0.3,0.1,0.5,0,0.8s-0.2,0.5-0.3,0.8c-0.1,0.2-0.3,0.3-0.5,0.3
		c-0.2,0-0.6-0.1-1.1-0.2c-0.5-0.1-1-0.3-1.5-0.4c-0.6-0.1-1.3-0.3-2-0.5c-0.6,2.1-1.1,4-1.6,5.7c-0.2,0.7-0.4,1.5-0.6,2.1
		c-0.2,0.7-0.4,1.3-0.5,1.9c-0.2,0.6-0.3,1.1-0.4,1.5c-0.1,0.4-0.2,0.7-0.2,0.8c-0.1,0.3-0.4,0.5-0.7,0.6c-0.4,0.1-0.7,0-1.1-0.1
		c-0.4-0.1-0.6-0.3-0.9-0.6c-0.2-0.3-0.3-0.6-0.2-0.9c0-0.1,0.1-0.4,0.2-0.8c0.1-0.4,0.2-0.9,0.4-1.5c0.2-0.6,0.3-1.2,0.5-1.9
		c0.2-0.7,0.3-1.4,0.5-2.1c0.4-1.6,0.9-3.4,1.4-5.4c-0.5-0.1-0.9-0.2-1.3-0.4c-0.4-0.1-0.7-0.2-1-0.3s-0.6-0.2-0.7-0.3
		c-0.1-0.1-0.2-0.2-0.3-0.5c0-0.2,0-0.5,0.1-0.7c0.1-0.3,0.2-0.5,0.3-0.7c0.1-0.2,0.3-0.3,0.5-0.2c0.2,0,0.4,0.1,0.8,0.2
		c0.3,0.1,0.7,0.2,1,0.2c0.4,0.1,0.8,0.2,1.3,0.3c0.3-1.2,0.6-2.2,0.9-3.2L285.1,23.9z"/>
	<path class="st1" d="M287.1,47.9c0.1-0.3,0.2-0.4,0.4-0.5s0.4-0.1,0.6,0c0.2,0.1,0.4,0.3,0.5,0.5s0.1,0.5,0,0.7s-0.2,0.4-0.4,0.5
		s-0.4,0.1-0.7,0c-0.2-0.1-0.3-0.3-0.4-0.5C287.1,48.4,287.1,48.2,287.1,47.9z"/>
	<path class="st1" d="M294.2,46.2c0-0.2,0-0.3,0-0.6c0-0.2,0-0.5,0-0.7s-0.1-0.5-0.2-0.7c-0.1-0.2-0.3-0.4-0.5-0.5
		c-0.1-0.1-0.3,0-0.5,0.1s-0.3,0.3-0.5,0.5c-0.2,0.3-0.3,0.6-0.5,0.9c-0.2,0.4-0.3,0.7-0.4,1.2c-0.2,0.9-0.3,1.6-0.2,2.2
		c0.1,0.6,0.3,0.9,0.7,1.1c0.3,0.1,0.6,0.1,0.9,0.1c0.3-0.1,0.6-0.1,0.9-0.2c0.3-0.1,0.5-0.2,0.8-0.3c0.2-0.1,0.4-0.1,0.5-0.1
		c0.2,0,0.4,0.2,0.5,0.5c0.1,0.3,0.1,0.6,0,0.8c0,0.1-0.2,0.3-0.4,0.4c-0.2,0.2-0.6,0.3-0.9,0.4c-0.4,0.1-0.8,0.1-1.3,0.1
		s-1-0.2-1.5-0.4c-0.9-0.4-1.5-1.1-1.8-2c-0.3-1-0.2-2.1,0.2-3.3c0.1-0.3,0.3-0.8,0.5-1.2s0.5-0.9,0.9-1.2c0.3-0.4,0.7-0.6,1.1-0.8
		c0.4-0.2,0.9-0.1,1.3,0.1c0.5,0.2,0.9,0.5,1.1,0.9c0.2,0.4,0.4,0.8,0.5,1.1c0.1,0.4,0.1,0.7,0.1,1.1c0,0.3-0.1,0.6-0.1,0.7
		c0,0.2-0.1,0.3-0.3,0.4c-0.1,0.1-0.3,0.1-0.4,0.1c-0.2,0-0.3-0.1-0.4-0.2C294.3,46.5,294.2,46.4,294.2,46.2z"/>
	<path class="st1" d="M299.1,46.4c0.6-0.1,1.1,0,1.6,0.4c0.5,0.3,0.9,0.8,1.2,1.3c0.3,0.5,0.6,1.2,0.7,1.8c0.1,0.7,0.1,1.3,0,2
		c-0.1,0.6-0.4,1.2-0.8,1.6c-0.4,0.4-0.9,0.7-1.4,0.9s-1.1,0.2-1.7,0c-0.6-0.1-1.1-0.4-1.6-0.9c-0.4-0.4-0.6-0.8-0.8-1.3
		c-0.2-0.5-0.3-1-0.3-1.5s0.1-1,0.2-1.5c0.1-0.5,0.3-0.9,0.6-1.3c0.3-0.4,0.6-0.7,0.9-1C298.2,46.6,298.6,46.4,299.1,46.4z
		 M299.8,48.1c-0.3,0-0.5,0.1-0.8,0.4c-0.3,0.3-0.5,0.6-0.6,1c-0.2,0.4-0.2,0.9-0.2,1.4s0.1,0.9,0.4,1.4c0.2,0.3,0.5,0.5,0.8,0.6
		s0.6,0.1,0.8,0.1c0.3-0.1,0.5-0.2,0.8-0.4s0.4-0.5,0.5-0.7c0.1-0.4,0.2-0.8,0.1-1.2c0-0.4-0.1-0.8-0.3-1.2
		c-0.2-0.4-0.4-0.7-0.6-0.9C300.3,48.2,300.1,48.1,299.8,48.1z"/>
	<path class="st1" d="M305.4,47.8c0.1-0.2,0.3-0.3,0.5-0.3s0.4,0.1,0.6,0.2c0.2,0.1,0.3,0.3,0.4,0.5s0.1,0.4,0.1,0.5
		s-0.1,0.2-0.2,0.4c-0.1,0.1-0.1,0.3-0.2,0.4c-0.1,0.1-0.1,0.3-0.1,0.3c0,0.1-0.1,0.1,0,0.1c0,0,0.1-0.1,0.2-0.2
		c0.1-0.1,0.3-0.2,0.5-0.2c0.2-0.1,0.4-0.1,0.7-0.1s0.5,0.1,0.8,0.3c0.3,0.2,0.5,0.5,0.6,0.9c0.1,0.4,0.1,0.7,0.1,1
		c0,0.4-0.1,0.8-0.2,1.2c0.3-0.2,0.5-0.3,0.8-0.4c0.2-0.1,0.5-0.1,0.8-0.1s0.6,0.1,0.9,0.3c0.5,0.3,0.8,0.8,0.9,1.4
		c0.1,0.6,0.2,1.2,0.1,1.9s-0.2,1.4-0.4,2.1c-0.2,0.7-0.4,1.3-0.7,1.9c-0.2,0.6-0.5,1.1-0.6,1.5c-0.2,0.4-0.3,0.7-0.3,0.7
		c0,0.1-0.2,0.2-0.3,0.2c-0.2,0-0.3,0-0.5-0.1c-0.2-0.1-0.3-0.2-0.4-0.3c-0.1-0.1-0.2-0.3-0.1-0.5c0-0.1,0.1-0.4,0.3-0.7
		c0.1-0.4,0.3-0.8,0.5-1.3s0.4-1,0.6-1.6s0.4-1.1,0.5-1.6s0.2-1,0.2-1.4s-0.1-0.7-0.2-0.8c-0.2-0.2-0.4-0.2-0.6-0.1
		c-0.2,0.1-0.4,0.3-0.7,0.6s-0.5,0.7-0.7,1.1c-0.2,0.5-0.5,0.9-0.7,1.4s-0.4,1-0.7,1.4c-0.2,0.5-0.4,0.9-0.6,1.2
		c-0.1,0.1-0.2,0.2-0.4,0.2c-0.2,0-0.4-0.1-0.6-0.3c-0.2-0.1-0.4-0.3-0.5-0.5c-0.1-0.2-0.2-0.4-0.1-0.6c0-0.1,0.1-0.3,0.3-0.6
		s0.4-0.7,0.6-1.1c0.2-0.4,0.5-0.9,0.7-1.4c0.2-0.5,0.5-1,0.7-1.5c0.4-1,0.5-1.7,0.5-2.2c-0.1-0.5-0.2-0.8-0.5-0.8
		c-0.3-0.1-0.6,0.1-1,0.4c-0.4,0.3-0.7,0.8-1.1,1.4c-0.1,0.3-0.3,0.6-0.4,0.9c-0.2,0.3-0.3,0.7-0.5,1c-0.2,0.4-0.4,0.8-0.6,1.3
		c-0.2,0.5-0.5,1-0.7,1.6c-0.1,0.2-0.2,0.2-0.5,0.2c-0.3,0-0.5-0.1-0.8-0.3c-0.3-0.1-0.5-0.3-0.6-0.5c-0.2-0.2-0.2-0.4-0.1-0.6
		c0-0.1,0.2-0.4,0.4-0.8c0.2-0.4,0.4-0.9,0.7-1.5c0.3-0.6,0.6-1.2,0.9-1.9s0.6-1.3,0.9-1.9c0.3-0.6,0.6-1.1,0.8-1.6
		C305.1,48.2,305.3,47.9,305.4,47.8z"/>
</g>
<g>
	<path class="st2" d="M206.9,56.3v8.1h4.6v1.4h-6.5v-9.5H206.9z"/>
	<path class="st2" d="M213.5,56.5c0.3,0,0.5,0.1,0.7,0.3s0.3,0.4,0.3,0.7c0,0.3-0.1,0.5-0.3,0.7c-0.2,0.2-0.4,0.3-0.7,0.3
		c-0.3,0-0.5-0.1-0.7-0.3c-0.2-0.2-0.3-0.4-0.3-0.7c0-0.3,0.1-0.5,0.3-0.7C213,56.6,213.2,56.5,213.5,56.5z M214.3,59.5v6.4h-1.7
		v-6.4H214.3z"/>
	<path class="st2" d="M217.1,59.5l1.5,3.7l1.5-3.7h1.8L219,66h-0.8l-2.9-6.5H217.1z"/>
	<path class="st2" d="M223.6,56.5c0.3,0,0.5,0.1,0.7,0.3s0.3,0.4,0.3,0.7c0,0.3-0.1,0.5-0.3,0.7c-0.2,0.2-0.4,0.3-0.7,0.3
		c-0.3,0-0.5-0.1-0.7-0.3c-0.2-0.2-0.3-0.4-0.3-0.7c0-0.3,0.1-0.5,0.3-0.7C223.2,56.6,223.4,56.5,223.6,56.5z M224.5,59.5v6.4h-1.7
		v-6.4H224.5z"/>
	<path class="st2" d="M229.9,59.3c0.7,0,1.2,0.2,1.6,0.7c0.4,0.4,0.6,1,0.6,1.8v4.1h-1.7V62c0-0.4-0.1-0.7-0.3-1
		c-0.2-0.2-0.5-0.4-0.8-0.4c-0.3,0-0.5,0.1-0.7,0.2c-0.2,0.2-0.5,0.4-0.8,0.8v4.2h-1.7v-6.4h1.7v0.9c0.3-0.4,0.6-0.6,1-0.8
		C229.2,59.4,229.5,59.3,229.9,59.3z"/>
	<path class="st2" d="M239.7,59.5v1.2h-1.1c0.2,0.2,0.3,0.4,0.4,0.6c0.1,0.2,0.1,0.4,0.1,0.6c0,0.5-0.2,1-0.6,1.4
		c-0.3,0.4-0.9,0.6-1.7,0.7c-0.4,0.1-0.7,0.1-0.9,0.2c-0.1,0.1-0.2,0.2-0.2,0.3c0,0.1,0.1,0.2,0.3,0.3c0.2,0.1,0.5,0.1,0.8,0.2
		c1,0.2,1.7,0.4,2.1,0.7c0.5,0.3,0.7,0.7,0.7,1.3c0,0.7-0.3,1.2-0.8,1.6c-0.6,0.4-1.3,0.5-2.4,0.5c-1,0-1.8-0.2-2.3-0.5
		s-0.9-0.8-0.9-1.4c0-0.8,0.6-1.4,1.7-1.7c-0.5-0.2-0.7-0.5-0.7-0.8c0-0.4,0.4-0.8,1.1-0.9v0c-0.5-0.1-0.9-0.4-1.2-0.7
		c-0.3-0.4-0.4-0.8-0.4-1.2c0-0.7,0.3-1.2,0.8-1.7c0.5-0.4,1.2-0.6,2-0.6H239.7z M234.7,67.1c0,0.6,0.6,0.9,1.7,0.9
		c0.5,0,0.9-0.1,1.2-0.2c0.3-0.2,0.4-0.4,0.4-0.6c0-0.3-0.2-0.5-0.5-0.6c-0.3-0.1-0.8-0.2-1.3-0.2c-0.4,0-0.8,0.1-1.1,0.2
		C234.9,66.7,234.7,66.9,234.7,67.1z M235.1,61.8c0,0.3,0.1,0.6,0.4,0.8c0.2,0.2,0.5,0.3,0.9,0.3c0.3,0,0.6-0.1,0.9-0.3
		c0.2-0.2,0.3-0.5,0.3-0.9c0-0.3-0.1-0.6-0.3-0.8c-0.2-0.2-0.5-0.3-0.8-0.3c-0.3,0-0.6,0.1-0.9,0.3
		C235.2,61.2,235.1,61.5,235.1,61.8z"/>
	<path class="st2" d="M244.2,56.3l2.7,6.1l2.6-6.1h1.9l-4.2,9.7h-0.6l-4.4-9.7H244.2z"/>
	<path class="st2" d="M254.4,59.3c0.9,0,1.7,0.3,2.2,0.9s0.8,1.4,0.8,2.5V63h-4.5c0.1,0.6,0.3,1,0.6,1.3c0.4,0.3,0.8,0.5,1.5,0.5
		c0.4,0,0.8-0.1,1.2-0.2c0.4-0.1,0.8-0.3,1.2-0.6v1.3c-0.7,0.5-1.7,0.8-2.7,0.8c-1,0-1.8-0.3-2.5-0.9s-1-1.4-1-2.4
		c0-1,0.3-1.8,0.9-2.4C252.7,59.6,253.4,59.3,254.4,59.3z M255.8,62c0-0.5-0.2-0.8-0.4-1.1c-0.2-0.3-0.6-0.4-1-0.4
		c-0.4,0-0.8,0.1-1,0.4c-0.3,0.3-0.4,0.6-0.5,1.1H255.8z"/>
	<path class="st2" d="M264.6,59.5v1.2h-1.1c0.2,0.2,0.3,0.4,0.4,0.6c0.1,0.2,0.1,0.4,0.1,0.6c0,0.5-0.2,1-0.6,1.4
		c-0.3,0.4-0.9,0.6-1.7,0.7c-0.4,0.1-0.7,0.1-0.9,0.2c-0.1,0.1-0.2,0.2-0.2,0.3c0,0.1,0.1,0.2,0.3,0.3c0.2,0.1,0.5,0.1,0.8,0.2
		c1,0.2,1.7,0.4,2.1,0.7c0.5,0.3,0.7,0.7,0.7,1.3c0,0.7-0.3,1.2-0.8,1.6c-0.6,0.4-1.3,0.5-2.4,0.5c-1,0-1.8-0.2-2.3-0.5
		s-0.9-0.8-0.9-1.4c0-0.8,0.6-1.4,1.7-1.7c-0.5-0.2-0.7-0.5-0.7-0.8c0-0.4,0.4-0.8,1.1-0.9v0c-0.5-0.1-0.9-0.4-1.2-0.7
		c-0.3-0.4-0.4-0.8-0.4-1.2c0-0.7,0.3-1.2,0.8-1.7c0.5-0.4,1.2-0.6,2-0.6H264.6z M259.7,67.1c0,0.6,0.6,0.9,1.7,0.9
		c0.5,0,0.9-0.1,1.2-0.2c0.3-0.2,0.4-0.4,0.4-0.6c0-0.3-0.2-0.5-0.5-0.6c-0.3-0.1-0.8-0.2-1.3-0.2c-0.4,0-0.8,0.1-1.1,0.2
		C259.8,66.7,259.7,66.9,259.7,67.1z M260.1,61.8c0,0.3,0.1,0.6,0.4,0.8c0.2,0.2,0.5,0.3,0.9,0.3c0.3,0,0.6-0.1,0.9-0.3
		c0.2-0.2,0.3-0.5,0.3-0.9c0-0.3-0.1-0.6-0.3-0.8c-0.2-0.2-0.5-0.3-0.8-0.3c-0.3,0-0.6,0.1-0.9,0.3
		C260.2,61.2,260.1,61.5,260.1,61.8z"/>
	<path class="st2" d="M267.9,59.3c0.8,0,1.4,0.2,1.9,0.5c0.4,0.3,0.6,0.8,0.6,1.5v3.1c0,0.2,0.1,0.4,0.3,0.4c0.1,0,0.2,0,0.3-0.1
		c0.1-0.1,0.3-0.2,0.4-0.2v1c-0.6,0.4-1.1,0.5-1.6,0.5c-0.3,0-0.5,0-0.7-0.2c-0.2-0.1-0.3-0.3-0.3-0.5c-0.6,0.5-1.3,0.7-1.9,0.7
		c-0.5,0-0.9-0.2-1.2-0.5c-0.3-0.3-0.5-0.7-0.5-1.1c0-0.6,0.2-1,0.5-1.3s0.9-0.6,1.7-0.8l1.4-0.4v-0.3c0-0.6-0.4-0.9-1.1-0.9
		c-0.4,0-0.8,0.1-1.2,0.3s-0.7,0.4-1,0.8v-1.5C266.1,59.6,266.9,59.3,267.9,59.3z M266.9,64.1c0,0.2,0.1,0.4,0.2,0.6
		c0.1,0.1,0.3,0.2,0.6,0.2c0.4,0,0.7-0.2,1.1-0.5v-1.7c-0.5,0.2-0.8,0.3-1.1,0.5c-0.3,0.1-0.5,0.3-0.6,0.4
		C266.9,63.8,266.9,63.9,266.9,64.1z"/>
	<path class="st2" d="M276.1,59.3c0.7,0,1.2,0.2,1.6,0.7c0.4,0.4,0.6,1,0.6,1.8v4.1h-1.7V62c0-0.4-0.1-0.7-0.3-1
		c-0.2-0.2-0.5-0.4-0.8-0.4c-0.3,0-0.5,0.1-0.7,0.2c-0.2,0.2-0.5,0.4-0.8,0.8v4.2h-1.7v-6.4h1.7v0.9c0.3-0.4,0.6-0.6,1-0.8
		C275.3,59.4,275.7,59.3,276.1,59.3z"/>
	<path class="st2" d="M280.8,63.9c0.3,0,0.5,0.1,0.7,0.3c0.2,0.2,0.3,0.5,0.3,0.7c0,0.3-0.1,0.5-0.3,0.7c-0.2,0.2-0.5,0.3-0.7,0.3
		c-0.3,0-0.5-0.1-0.7-0.3c-0.2-0.2-0.3-0.5-0.3-0.7c0-0.3,0.1-0.5,0.3-0.7S280.5,63.9,280.8,63.9z"/>
	<path class="st2" d="M284.3,63.9c0.3,0,0.5,0.1,0.7,0.3c0.2,0.2,0.3,0.5,0.3,0.7c0,0.3-0.1,0.5-0.3,0.7c-0.2,0.2-0.5,0.3-0.7,0.3
		c-0.3,0-0.5-0.1-0.7-0.3c-0.2-0.2-0.3-0.5-0.3-0.7c0-0.3,0.1-0.5,0.3-0.7S284,63.9,284.3,63.9z"/>
	<path class="st2" d="M287.7,63.9c0.3,0,0.5,0.1,0.7,0.3c0.2,0.2,0.3,0.5,0.3,0.7c0,0.3-0.1,0.5-0.3,0.7c-0.2,0.2-0.5,0.3-0.7,0.3
		c-0.3,0-0.5-0.1-0.7-0.3c-0.2-0.2-0.3-0.5-0.3-0.7c0-0.3,0.1-0.5,0.3-0.7S287.4,63.9,287.7,63.9z"/>
</g>
<g>
	<path class="st1" d="M206.9,56.3v8.1h4.6v1.4h-6.5v-9.5H206.9z"/>
	<path class="st1" d="M213.5,56.5c0.3,0,0.5,0.1,0.7,0.3s0.3,0.4,0.3,0.7c0,0.3-0.1,0.5-0.3,0.7c-0.2,0.2-0.4,0.3-0.7,0.3
		c-0.3,0-0.5-0.1-0.7-0.3c-0.2-0.2-0.3-0.4-0.3-0.7c0-0.3,0.1-0.5,0.3-0.7C213,56.6,213.2,56.5,213.5,56.5z M214.3,59.5v6.4h-1.7
		v-6.4H214.3z"/>
	<path class="st1" d="M217.1,59.5l1.5,3.7l1.5-3.7h1.8L219,66h-0.8l-2.9-6.5H217.1z"/>
	<path class="st1" d="M223.6,56.5c0.3,0,0.5,0.1,0.7,0.3s0.3,0.4,0.3,0.7c0,0.3-0.1,0.5-0.3,0.7c-0.2,0.2-0.4,0.3-0.7,0.3
		c-0.3,0-0.5-0.1-0.7-0.3c-0.2-0.2-0.3-0.4-0.3-0.7c0-0.3,0.1-0.5,0.3-0.7C223.2,56.6,223.4,56.5,223.6,56.5z M224.5,59.5v6.4h-1.7
		v-6.4H224.5z"/>
	<path class="st1" d="M229.9,59.3c0.7,0,1.2,0.2,1.6,0.7c0.4,0.4,0.6,1,0.6,1.8v4.1h-1.7V62c0-0.4-0.1-0.7-0.3-1
		c-0.2-0.2-0.5-0.4-0.8-0.4c-0.3,0-0.5,0.1-0.7,0.2c-0.2,0.2-0.5,0.4-0.8,0.8v4.2h-1.7v-6.4h1.7v0.9c0.3-0.4,0.6-0.6,1-0.8
		C229.2,59.4,229.5,59.3,229.9,59.3z"/>
	<path class="st1" d="M239.7,59.5v1.2h-1.1c0.2,0.2,0.3,0.4,0.4,0.6c0.1,0.2,0.1,0.4,0.1,0.6c0,0.5-0.2,1-0.6,1.4
		c-0.3,0.4-0.9,0.6-1.7,0.7c-0.4,0.1-0.7,0.1-0.9,0.2c-0.1,0.1-0.2,0.2-0.2,0.3c0,0.1,0.1,0.2,0.3,0.3c0.2,0.1,0.5,0.1,0.8,0.2
		c1,0.2,1.7,0.4,2.1,0.7c0.5,0.3,0.7,0.7,0.7,1.3c0,0.7-0.3,1.2-0.8,1.6c-0.6,0.4-1.3,0.5-2.4,0.5c-1,0-1.8-0.2-2.3-0.5
		s-0.9-0.8-0.9-1.4c0-0.8,0.6-1.4,1.7-1.7c-0.5-0.2-0.7-0.5-0.7-0.8c0-0.4,0.4-0.8,1.1-0.9v0c-0.5-0.1-0.9-0.4-1.2-0.7
		c-0.3-0.4-0.4-0.8-0.4-1.2c0-0.7,0.3-1.2,0.8-1.7c0.5-0.4,1.2-0.6,2-0.6H239.7z M234.7,67.1c0,0.6,0.6,0.9,1.7,0.9
		c0.5,0,0.9-0.1,1.2-0.2c0.3-0.2,0.4-0.4,0.4-0.6c0-0.3-0.2-0.5-0.5-0.6c-0.3-0.1-0.8-0.2-1.3-0.2c-0.4,0-0.8,0.1-1.1,0.2
		C234.9,66.7,234.7,66.9,234.7,67.1z M235.1,61.8c0,0.3,0.1,0.6,0.4,0.8c0.2,0.2,0.5,0.3,0.9,0.3c0.3,0,0.6-0.1,0.9-0.3
		c0.2-0.2,0.3-0.5,0.3-0.9c0-0.3-0.1-0.6-0.3-0.8c-0.2-0.2-0.5-0.3-0.8-0.3c-0.3,0-0.6,0.1-0.9,0.3
		C235.2,61.2,235.1,61.5,235.1,61.8z"/>
	<path class="st1" d="M244.2,56.3l2.7,6.1l2.6-6.1h1.9l-4.2,9.7h-0.6l-4.4-9.7H244.2z"/>
	<path class="st1" d="M254.4,59.3c0.9,0,1.7,0.3,2.2,0.9s0.8,1.4,0.8,2.5V63h-4.5c0.1,0.6,0.3,1,0.6,1.3c0.4,0.3,0.8,0.5,1.5,0.5
		c0.4,0,0.8-0.1,1.2-0.2c0.4-0.1,0.8-0.3,1.2-0.6v1.3c-0.7,0.5-1.7,0.8-2.7,0.8c-1,0-1.8-0.3-2.5-0.9s-1-1.4-1-2.4
		c0-1,0.3-1.8,0.9-2.4C252.7,59.6,253.4,59.3,254.4,59.3z M255.8,62c0-0.5-0.2-0.8-0.4-1.1c-0.2-0.3-0.6-0.4-1-0.4
		c-0.4,0-0.8,0.1-1,0.4c-0.3,0.3-0.4,0.6-0.5,1.1H255.8z"/>
	<path class="st1" d="M264.6,59.5v1.2h-1.1c0.2,0.2,0.3,0.4,0.4,0.6c0.1,0.2,0.1,0.4,0.1,0.6c0,0.5-0.2,1-0.6,1.4
		c-0.3,0.4-0.9,0.6-1.7,0.7c-0.4,0.1-0.7,0.1-0.9,0.2c-0.1,0.1-0.2,0.2-0.2,0.3c0,0.1,0.1,0.2,0.3,0.3c0.2,0.1,0.5,0.1,0.8,0.2
		c1,0.2,1.7,0.4,2.1,0.7c0.5,0.3,0.7,0.7,0.7,1.3c0,0.7-0.3,1.2-0.8,1.6c-0.6,0.4-1.3,0.5-2.4,0.5c-1,0-1.8-0.2-2.3-0.5
		s-0.9-0.8-0.9-1.4c0-0.8,0.6-1.4,1.7-1.7c-0.5-0.2-0.7-0.5-0.7-0.8c0-0.4,0.4-0.8,1.1-0.9v0c-0.5-0.1-0.9-0.4-1.2-0.7
		c-0.3-0.4-0.4-0.8-0.4-1.2c0-0.7,0.3-1.2,0.8-1.7c0.5-0.4,1.2-0.6,2-0.6H264.6z M259.7,67.1c0,0.6,0.6,0.9,1.7,0.9
		c0.5,0,0.9-0.1,1.2-0.2c0.3-0.2,0.4-0.4,0.4-0.6c0-0.3-0.2-0.5-0.5-0.6c-0.3-0.1-0.8-0.2-1.3-0.2c-0.4,0-0.8,0.1-1.1,0.2
		C259.8,66.7,259.7,66.9,259.7,67.1z M260.1,61.8c0,0.3,0.1,0.6,0.4,0.8c0.2,0.2,0.5,0.3,0.9,0.3c0.3,0,0.6-0.1,0.9-0.3
		c0.2-0.2,0.3-0.5,0.3-0.9c0-0.3-0.1-0.6-0.3-0.8c-0.2-0.2-0.5-0.3-0.8-0.3c-0.3,0-0.6,0.1-0.9,0.3
		C260.2,61.2,260.1,61.5,260.1,61.8z"/>
	<path class="st1" d="M267.9,59.3c0.8,0,1.4,0.2,1.9,0.5c0.4,0.3,0.6,0.8,0.6,1.5v3.1c0,0.2,0.1,0.4,0.3,0.4c0.1,0,0.2,0,0.3-0.1
		c0.1-0.1,0.3-0.2,0.4-0.2v1c-0.6,0.4-1.1,0.5-1.6,0.5c-0.3,0-0.5,0-0.7-0.2c-0.2-0.1-0.3-0.3-0.3-0.5c-0.6,0.5-1.3,0.7-1.9,0.7
		c-0.5,0-0.9-0.2-1.2-0.5c-0.3-0.3-0.5-0.7-0.5-1.1c0-0.6,0.2-1,0.5-1.3s0.9-0.6,1.7-0.8l1.4-0.4v-0.3c0-0.6-0.4-0.9-1.1-0.9
		c-0.4,0-0.8,0.1-1.2,0.3s-0.7,0.4-1,0.8v-1.5C266.1,59.6,266.9,59.3,267.9,59.3z M266.9,64.1c0,0.2,0.1,0.4,0.2,0.6
		c0.1,0.1,0.3,0.2,0.6,0.2c0.4,0,0.7-0.2,1.1-0.5v-1.7c-0.5,0.2-0.8,0.3-1.1,0.5c-0.3,0.1-0.5,0.3-0.6,0.4
		C266.9,63.8,266.9,63.9,266.9,64.1z"/>
	<path class="st1" d="M276.1,59.3c0.7,0,1.2,0.2,1.6,0.7c0.4,0.4,0.6,1,0.6,1.8v4.1h-1.7V62c0-0.4-0.1-0.7-0.3-1
		c-0.2-0.2-0.5-0.4-0.8-0.4c-0.3,0-0.5,0.1-0.7,0.2c-0.2,0.2-0.5,0.4-0.8,0.8v4.2h-1.7v-6.4h1.7v0.9c0.3-0.4,0.6-0.6,1-0.8
		C275.3,59.4,275.7,59.3,276.1,59.3z"/>
	<path class="st1" d="M280.8,63.9c0.3,0,0.5,0.1,0.7,0.3c0.2,0.2,0.3,0.5,0.3,0.7c0,0.3-0.1,0.5-0.3,0.7c-0.2,0.2-0.5,0.3-0.7,0.3
		c-0.3,0-0.5-0.1-0.7-0.3c-0.2-0.2-0.3-0.5-0.3-0.7c0-0.3,0.1-0.5,0.3-0.7S280.5,63.9,280.8,63.9z"/>
	<path class="st1" d="M284.3,63.9c0.3,0,0.5,0.1,0.7,0.3c0.2,0.2,0.3,0.5,0.3,0.7c0,0.3-0.1,0.5-0.3,0.7c-0.2,0.2-0.5,0.3-0.7,0.3
		c-0.3,0-0.5-0.1-0.7-0.3c-0.2-0.2-0.3-0.5-0.3-0.7c0-0.3,0.1-0.5,0.3-0.7S284,63.9,284.3,63.9z"/>
	<path class="st1" d="M287.7,63.9c0.3,0,0.5,0.1,0.7,0.3c0.2,0.2,0.3,0.5,0.3,0.7c0,0.3-0.1,0.5-0.3,0.7c-0.2,0.2-0.5,0.3-0.7,0.3
		c-0.3,0-0.5-0.1-0.7-0.3c-0.2-0.2-0.3-0.5-0.3-0.7c0-0.3,0.1-0.5,0.3-0.7S287.4,63.9,287.7,63.9z"/>
</g>
</svg>
