<?xml version="1.0" encoding="utf-8"?>
<!-- Generator: Adobe Illustrator 22.1.0, SVG Export Plug-In . SVG Version: 6.00 Build 0)  -->
<svg version="1.1" id="Layer_1" xmlns="http://www.w3.org/2000/svg" xmlns:xlink="http://www.w3.org/1999/xlink" x="0px" y="0px"
	 viewBox="0 0 468 80.1" style="enable-background:new 0 0 468 80.1;" xml:space="preserve">
<style type="text/css">
	.st0{fill:#FFFFFF;}
	.st1{fill:#231F20;}
	.st2{fill-rule:evenodd;clip-rule:evenodd;}
	.st3{fill-rule:evenodd;clip-rule:evenodd;fill:#D9272D;}
</style>
<g>
	<path class="st0" d="M285.3,43.2l-0.2-0.1c0,0,3-0.6,4.4-3.6c0.8-1.7,0.8-3.7,0.1-5.5c-1.3-3-3.2-5.6-5.6-7.7
		c-1.2-1.1-2.8-1.6-4.4-1.7c-3.9,0-5.6,3.1-5.6,3.1l0-10.8c0-3.7-2.9-6.6-6.6-6.6c-1.6,0-4.5,0.5-6.4,1c-1.9,0.5-3.8,1.2-5.6,2.1
		c-1.7,0.8-2.9,2.3-3.5,4c-0.5,1.8-0.3,3.7,0.6,5.3l5.4,9.3c0,0-1.3-0.8-3.1-0.8c-2.8,0-5.4,1.8-6.3,4.5c-0.1,0.2-0.1,0.4-0.2,0.6
		c-0.9-0.8-1.9-1.6-3.2-2.2c-1.7-0.8-3.7-1.3-5.6-1.3c-1.5,0-2.9,0.3-4.3,0.7c-1-0.5-2.1-0.8-3.3-0.8c-1.7,0-3.2,0.6-4.5,1.6v-1.3
		c0-3.9-3.2-7.1-7.1-7.1c-3.9,0-7.1,3.2-7.1,7.1v3.9c-2.7-2.8-6.3-4-9.5-4c-2.4,0-5.6,0.8-8.3,3c-0.9-1.3-2.2-2.2-3.7-2.7
		c-0.7-0.2-1.4-0.3-2.1-0.3c-3.2,0-5.9,2-6.9,5.1l-0.3,1l-1-2c-1.3-2.9-5.4-5.3-9.6-3.3c-1.7,0.8-3,2.3-3.6,4.1
		c-0.6,1.8-0.5,3.8,0.3,5.5l6.8,14c-2,0.8-3.5,2.4-4.1,4.6c-0.6,2.1-0.2,4.3,1,6c1,1.4,3,3,6.7,3.1c0.1,0,0.3,0,0.4,0
		c5.2,0,9-2.6,10.4-7c0.6-1.8,1.3-4,2-6.2c0.1,0.3,0.3,0.6,0.4,0.8c2.2,4.3,6.4,6.6,11.6,6.6c4.9,0,8.3-1.7,10.5-3.8
		c1.2,2.2,3.6,3.7,6.3,3.7c1.7,0,3.2-0.6,4.5-1.6v1.3c0,3.9,3.2,7.1,7.1,7.1c3.9,0,7-3.1,7.1-6.9c0,0,5.6,0.3,9.3-3.6
		c0.4-0.4,1-1.1,1.7-2.3c0.9,0.5,1.9,0.8,2.9,0.8c0.9,0,1.7-0.2,2.4-0.5c0.4,0.5,0.9,1,1.5,1.4c2.6,1.8,5.7,3,8.8,3.6
		c0.4,0.1,0.7,0.1,1.1,0.1c3.6,0,6.5-2.8,6.6-6.4l0-0.2l0.1,0.2c1.2,1.9,3.3,3.1,5.6,3.1c1.5,0,3-0.5,4.2-1.5c2.5-2,4.5-4.6,5.9-7.5
		c0.8-1.7,0.9-3.7,0.1-5.5C288.6,45.2,287.1,43.8,285.3,43.2z"/>
	<path class="st1" d="M253,52.9c0.8,0,1.4,0.6,1.4,1.4c0,0.8-0.6,1.4-1.4,1.4c-0.8,0-1.4-0.6-1.4-1.4
		C251.6,53.5,252.2,52.9,253,52.9z M253,55.5c0.7,0,1.2-0.5,1.2-1.2c0-0.7-0.5-1.2-1.2-1.2c-0.7,0-1.2,0.5-1.2,1.2
		C251.8,55,252.3,55.5,253,55.5z M252.4,53.5h0.6c0.4,0,0.6,0.1,0.6,0.5c0,0.3-0.2,0.4-0.4,0.4l0.5,0.7h-0.2l-0.4-0.7h-0.3v0.7h-0.2
		V53.5z M252.7,54.2h0.3c0.2,0,0.4,0,0.4-0.3c0-0.2-0.2-0.3-0.4-0.3h-0.3V54.2z"/>
	<path class="st2" d="M222.8,58.3c0,1.4-1.1,2.5-2.5,2.5c-1.4,0-2.5-1.1-2.5-2.5v-25c0-1.4,1.1-2.5,2.5-2.5c1.4,0,2.5,1.1,2.5,2.5
		V58.3z"/>
	<path d="M201.1,51.3l9,0c0.1,0,0.1,0,0.2,0c1.3-0.1,2.4-1.1,2.4-2.8c0,0,0,0,0,0c0,0,0-0.1,0-0.1c-0.4-9.2-6.3-10.5-9-10.5
		c-2.8,0-9.1,1.6-9.1,11.8c0,3.8,0.9,11.2,8.9,11.2c7,0,8.5-4,8.5-5.1c0-1.5-1.3-2.8-2.7-2.3c-1.2,0.4-2.7,2.7-5.3,2.7
		c-3.7,0-4.1-3.3-4.1-4.1C200,51.5,200.3,51.3,201.1,51.3z M200,46.8c0.2-3.5,2.8-4,4-4c1.2,0,3.8,0.6,4,4.1c0,0.2-0.1,0.3-0.2,0.3
		h-7.5C200.1,47.1,200,47,200,46.8z"/>
	<path d="M180.4,57.6l-7.9-16.1c-0.6-1.3-0.1-2.8,1.2-3.5c1.3-0.6,2.8-0.1,3.5,1.2l6.1,12.5l3.7-12.1c0.4-1.4,1.9-2.1,3.2-1.7
		c1.4,0.4,2.1,1.9,1.7,3.2c0,0-4.2,13.8-6.7,21.7c-0.8,2.6-3,3.9-6.3,3.8c-3.2-0.1-3.8-2-3.4-3.3c0.4-1.4,1.6-1.8,2.7-1.8
		C181.2,61.6,181.5,59.8,180.4,57.6z"/>
	<path d="M247.7,48.3c0-3.3-0.4-7.8-4.6-9.8c-2.4-1.1-5.2-1.1-7.5,0.2c-0.4,0.3-0.9,0.5-1.3,0.8c-0.3-1.1-1.3-1.9-2.4-1.9
		c-1.4,0-2.5,1.1-2.5,2.5v25c0,1.4,1.1,2.5,2.5,2.5c1.4,0,2.5-1.1,2.5-2.5v-6.6c0,0,1.7,2.1,4.4,2.1
		C248.3,60.9,247.7,50.5,247.7,48.3z M242.7,50.2c0,2,0,5.6-3.6,5.6c-3.6,0-3.6-3.6-3.6-5.6v-1.8c0-2,0-5.6,3.6-5.6
		c3.6,0,3.6,3.6,3.6,5.6V50.2z"/>
	<path class="st3" d="M255.6,36.2l8.8,4.3c1.7,0.8,1.4,3.3-0.4,3.8l-9.5,2.4c-1.2,0.3-2.3-0.5-2.5-1.7c-0.3-2.6,0-5.1,0.8-7.5
		C253.2,36.2,254.5,35.7,255.6,36.2z"/>
	<path class="st3" d="M259.1,54.3l6.5-7.3c1.3-1.4,3.6-0.5,3.5,1.4l-0.3,9.8c0,1.2-1.1,2.1-2.3,1.9c-2.5-0.4-4.9-1.4-7-2.8
		C258.5,56.6,258.3,55.2,259.1,54.3z"/>
	<path class="st3" d="M274.6,44.6l9.3,3c1.2,0.4,1.7,1.7,1.2,2.8c-1.1,2.3-2.7,4.3-4.6,6c-0.9,0.8-2.3,0.5-3-0.5l-5.2-8.3
		C271.3,46,272.8,44,274.6,44.6z"/>
	<path class="st3" d="M284,38.7l-9.4,2.7c-1.8,0.5-3.3-1.5-2.2-3.1l5.5-8.1c0.7-1,2.1-1.2,3-0.4c1.9,1.7,3.4,3.7,4.4,6.1
		C285.8,37,285.2,38.3,284,38.7z"/>
	<path class="st3" d="M262.1,15.9c-1.7,0.5-3.3,1.1-4.8,1.8c-1.1,0.5-1.5,1.8-0.9,2.8l9.2,15.9c1,1.8,3.8,1.1,3.8-1l0-18.4
		c0-1.2-1-2.1-2.2-2C265.5,15.1,263.8,15.4,262.1,15.9z"/>
</g>
</svg>
