<?xml version="1.0" encoding="utf-8"?>
<!-- Generator: Adobe Illustrator 22.1.0, SVG Export Plug-In . SVG Version: 6.00 Build 0)  -->
<svg version="1.1" id="Layer_1" xmlns="http://www.w3.org/2000/svg" xmlns:xlink="http://www.w3.org/1999/xlink" x="0px" y="0px"
	 viewBox="0 0 468 80.1" style="enable-background:new 0 0 468 80.1;" xml:space="preserve">
<style type="text/css">
	.st0{fill:#FFFFFF;}
	.st1{fill:#231F20;}
	.st2{fill:#D9272D;}
	.st3{fill:#FFFFFF;stroke:#000000;stroke-width:3;stroke-miterlimit:10;}
</style>
<g>
	<path class="st0" d="M270.4,50.6l-0.1-0.1c0,0,2.2-0.4,3.2-2.6c0.6-1.3,0.6-2.7,0.1-4c-1-2.2-2.4-4.1-4.1-5.7
		c-0.9-0.8-2.1-1.2-3.2-1.3c-2.9,0-4.1,2.3-4.1,2.3v-7.9c0-2.7-2.1-4.9-4.9-4.9c-1.2,0-3.3,0.4-4.7,0.7c-1.4,0.4-2.8,0.9-4.1,1.5
		c-1.3,0.6-2.1,1.7-2.6,2.9c-0.4,1.3-0.2,2.7,0.4,3.9l4,6.8c0,0-1-0.6-2.3-0.6c-2.1,0-4,1.3-4.6,3.3c-0.1,0.1-0.1,0.3-0.1,0.4
		c-0.7-0.6-1.4-1.2-2.4-1.6c-1.3-0.6-2.7-1-4.1-1c-1.1,0-2.1,0.2-3.2,0.5c-0.7-0.4-1.5-0.6-2.4-0.6c-1.3,0-2.4,0.4-3.3,1.2v-1
		c0-2.9-2.4-5.2-5.2-5.2s-5.2,2.4-5.2,5.2V46c-2-2.1-4.6-2.9-7-2.9c-1.8,0-4.1,0.6-6.1,2.2c-0.7-1-1.6-1.6-2.7-2
		c-0.5-0.1-1-0.2-1.5-0.2c-2.4,0-4.3,1.5-5.1,3.8l-0.2,0.7l-0.7-1.5c-1-2.1-4-3.9-7.1-2.4c-1.3,0.6-2.2,1.7-2.6,3s-0.4,2.8,0.2,4
		l5,10.3c-1.5,0.6-2.6,1.8-3,3.4c-0.4,1.5-0.1,3.2,0.7,4.4c0.7,1,2.2,2.2,4.9,2.3c0.1,0,0.2,0,0.3,0c3.8,0,6.6-1.9,7.7-5.2
		c0.4-1.3,1-2.9,1.5-4.6c0.1,0.2,0.2,0.4,0.3,0.6c1.6,3.2,4.7,4.9,8.5,4.9c3.6,0,6.1-1.3,7.7-2.8c0.9,1.6,2.6,2.7,4.6,2.7
		c1.3,0,2.4-0.4,3.3-1.2v1c0,2.9,2.4,5.2,5.2,5.2c2.9,0,5.2-2.3,5.2-5.1c0,0,4.1,0.2,6.8-2.6c0.3-0.3,0.7-0.8,1.3-1.7
		c0.7,0.4,1.4,0.6,2.1,0.6c0.7,0,1.3-0.1,1.8-0.4c0.3,0.4,0.7,0.7,1.1,1c1.9,1.3,4.2,2.2,6.5,2.6c0.3,0.1,0.5,0.1,0.8,0.1
		c2.6,0,4.8-2.1,4.9-4.7v-0.1l0.1,0.1c0.9,1.4,2.4,2.3,4.1,2.3c1.1,0,2.2-0.4,3.1-1.1c1.8-1.5,3.3-3.4,4.3-5.5
		c0.6-1.3,0.7-2.7,0.1-4C272.9,52.1,271.7,51.1,270.4,50.6z"/>
	<path class="st1" d="M246.7,57.8c0.6,0,1,0.4,1,1s-0.4,1-1,1c-0.6,0-1-0.4-1-1C245.6,58.2,246.1,57.8,246.7,57.8z M246.7,59.7
		c0.5,0,0.9-0.4,0.9-0.9c0-0.5-0.4-0.9-0.9-0.9c-0.5,0-0.9,0.4-0.9,0.9C245.8,59.3,246.1,59.7,246.7,59.7z M246.2,58.2h0.4
		c0.3,0,0.4,0.1,0.4,0.4c0,0.2-0.1,0.3-0.3,0.3l0.4,0.5H247l-0.3-0.5h-0.2v0.5h-0.1v-1.2H246.2z M246.4,58.7h0.2
		c0.1,0,0.3,0,0.3-0.2c0-0.1-0.1-0.2-0.3-0.2h-0.2V58.7z"/>
	<path d="M224.4,61.8c0,1-0.8,1.8-1.8,1.8s-1.8-0.8-1.8-1.8V43.4c0-1,0.8-1.8,1.8-1.8s1.8,0.8,1.8,1.8V61.8z"/>
	<path d="M208.5,56.6h6.6c0.1,0,0.1,0,0.1,0c1-0.1,1.8-0.8,1.8-2.1l0,0v-0.1c-0.3-6.8-4.6-7.7-6.6-7.7c-2.1,0-6.7,1.2-6.7,8.7
		c0,2.8,0.7,8.2,6.5,8.2c5.2,0,6.3-2.9,6.3-3.8c0-1.1-1-2.1-2-1.7c-0.9,0.3-2,2-3.9,2c-2.7,0-3-2.4-3-3
		C207.6,56.8,207.9,56.6,208.5,56.6z M207.6,53.3c0.1-2.6,2.1-2.9,2.9-2.9c0.9,0,2.8,0.4,2.9,3c0,0.1-0.1,0.2-0.1,0.2h-5.5
		C207.7,53.5,207.6,53.4,207.6,53.3z"/>
	<path d="M193.2,61.2l-5.8-11.8c-0.4-1-0.1-2.1,0.9-2.6c1-0.4,2.1-0.1,2.6,0.9l4.5,9.2l2.7-8.9c0.3-1,1.4-1.5,2.4-1.3
		c1,0.3,1.5,1.4,1.3,2.4c0,0-3.1,10.2-4.9,16c-0.6,1.9-2.2,2.9-4.6,2.8c-2.4-0.1-2.8-1.5-2.5-2.4c0.3-1,1.2-1.3,2-1.3
		C193.8,64.2,194,62.9,193.2,61.2z"/>
	<path d="M242.8,54.4c0-2.4-0.3-5.7-3.4-7.2c-1.8-0.8-3.8-0.8-5.5,0.1c-0.3,0.2-0.7,0.4-1,0.6c-0.2-0.8-1-1.4-1.8-1.4
		c-1,0-1.8,0.8-1.8,1.8v18.4c0,1,0.8,1.8,1.8,1.8s1.8-0.8,1.8-1.8v-4.9c0,0,1.3,1.5,3.2,1.5C243.2,63.7,242.8,56,242.8,54.4z
		 M239.1,55.8c0,1.5,0,4.1-2.6,4.1s-2.6-2.6-2.6-4.1v-1.3c0-1.5,0-4.1,2.6-4.1s2.6,2.6,2.6,4.1V55.8z"/>
	<path class="st2" d="M248.6,45.5l6.5,3.2c1.3,0.6,1,2.4-0.3,2.8l-7,1.8c-0.9,0.2-1.7-0.4-1.8-1.3c-0.2-1.9,0-3.8,0.6-5.5
		C246.8,45.5,247.8,45.1,248.6,45.5z"/>
	<path class="st2" d="M251.1,58.8l4.8-5.4c1-1,2.6-0.4,2.6,1l-0.2,7.2c0,0.9-0.8,1.5-1.7,1.4c-1.8-0.3-3.6-1-5.2-2.1
		C250.7,60.5,250.6,59.5,251.1,58.8z"/>
	<path class="st2" d="M262.5,51.7l6.8,2.2c0.9,0.3,1.3,1.3,0.9,2.1c-0.8,1.7-2,3.2-3.4,4.4c-0.7,0.6-1.7,0.4-2.2-0.4l-3.8-6.1
		C260.1,52.7,261.2,51.2,262.5,51.7z"/>
	<path class="st2" d="M269.5,47.3l-6.9,2c-1.3,0.4-2.4-1.1-1.6-2.3l4-6c0.5-0.7,1.5-0.9,2.2-0.3c1.4,1.3,2.5,2.7,3.2,4.5
		C270.8,46.1,270.3,47,269.5,47.3z"/>
	<path class="st2" d="M253.3,30.6c-1.3,0.4-2.4,0.8-3.5,1.3c-0.8,0.4-1.1,1.3-0.7,2.1l6.8,11.7c0.7,1.3,2.8,0.8,2.8-0.7V31.4
		c0-0.9-0.7-1.5-1.6-1.5C255.9,30,254.6,30.2,253.3,30.6z"/>
</g>
<g>
	<path class="st3" d="M190,17c0.1,0.1,0.2,0.2,0.3,0.3s0.2,0.1,0.4,0.2s0.3,0.1,0.5,0.1c0.1,0,0.2,0,0.4,0c0.1,0,0.2-0.1,0.4-0.1
		c0.1-0.1,0.2-0.1,0.3-0.2s0.1-0.2,0.1-0.4c0-0.2,0-0.3-0.1-0.4c-0.1-0.1-0.2-0.2-0.4-0.2s-0.3-0.1-0.5-0.2s-0.4-0.1-0.6-0.2
		c-0.2-0.1-0.4-0.1-0.6-0.2s-0.4-0.2-0.5-0.3c-0.2-0.1-0.3-0.3-0.4-0.5c-0.1-0.2-0.1-0.4-0.1-0.7c0-0.3,0.1-0.5,0.2-0.8
		c0.1-0.2,0.3-0.4,0.5-0.5s0.4-0.3,0.7-0.3s0.5-0.1,0.8-0.1c0.3,0,0.6,0,0.9,0.1c0.3,0.1,0.5,0.2,0.7,0.3s0.4,0.3,0.5,0.6
		c0.1,0.2,0.2,0.5,0.2,0.8h-1.2c0-0.2,0-0.3-0.1-0.4c-0.1-0.1-0.1-0.2-0.2-0.3c-0.1-0.1-0.2-0.1-0.3-0.1c-0.1,0-0.3,0-0.4,0
		c-0.1,0-0.2,0-0.3,0c-0.1,0-0.2,0.1-0.3,0.1c-0.1,0.1-0.2,0.1-0.2,0.2c-0.1,0.1-0.1,0.2-0.1,0.3c0,0.1,0,0.2,0.1,0.3
		c0,0.1,0.1,0.1,0.3,0.2c0.1,0.1,0.3,0.1,0.5,0.2s0.5,0.1,0.9,0.2c0.1,0,0.3,0.1,0.4,0.1c0.2,0.1,0.4,0.1,0.6,0.3
		c0.2,0.1,0.3,0.3,0.5,0.5c0.1,0.2,0.2,0.5,0.2,0.8c0,0.3-0.1,0.5-0.2,0.7c-0.1,0.2-0.3,0.4-0.5,0.6c-0.2,0.2-0.4,0.3-0.7,0.4
		c-0.3,0.1-0.6,0.1-1,0.1c-0.3,0-0.6,0-0.9-0.1c-0.3-0.1-0.6-0.2-0.8-0.4c-0.2-0.2-0.4-0.4-0.5-0.6c-0.1-0.3-0.2-0.6-0.2-0.9h1.2
		C189.9,16.7,190,16.9,190,17z"/>
	<path class="st3" d="M198.5,12.7v1.1h-3V15h2.8v1h-2.8v1.4h3.1v1.1h-4.3v-5.7H198.5z"/>
	<path class="st3" d="M202.3,12.7l2.1,5.7h-1.3l-0.4-1.3h-2.1l-0.4,1.3h-1.3l2.2-5.7H202.3z M202.4,16.2l-0.7-2.1h0l-0.7,2.1H202.4z
		"/>
	<path class="st3" d="M208,12.7c0.3,0,0.5,0,0.7,0.1c0.2,0.1,0.4,0.2,0.5,0.3c0.1,0.1,0.3,0.3,0.3,0.5c0.1,0.2,0.1,0.4,0.1,0.6
		c0,0.3-0.1,0.6-0.2,0.9c-0.1,0.2-0.4,0.4-0.7,0.6v0c0.2,0,0.3,0.1,0.4,0.2c0.1,0.1,0.2,0.2,0.2,0.3c0.1,0.1,0.1,0.3,0.1,0.4
		s0,0.3,0.1,0.4c0,0.1,0,0.2,0,0.3c0,0.1,0,0.2,0,0.4c0,0.1,0,0.2,0.1,0.4s0.1,0.2,0.1,0.3h-1.3c-0.1-0.2-0.1-0.4-0.1-0.6
		s0-0.5-0.1-0.7c0-0.3-0.1-0.5-0.3-0.7s-0.4-0.2-0.7-0.2h-1.3v2.2h-1.3v-5.7H208z M207.6,15.3c0.3,0,0.5-0.1,0.6-0.2
		c0.1-0.1,0.2-0.3,0.2-0.6c0-0.3-0.1-0.5-0.2-0.6c-0.1-0.1-0.4-0.2-0.6-0.2h-1.4v1.6H207.6z"/>
	<path class="st3" d="M214.4,14.3c-0.1-0.1-0.2-0.2-0.3-0.3s-0.2-0.2-0.4-0.2c-0.1-0.1-0.3-0.1-0.4-0.1c-0.3,0-0.5,0.1-0.7,0.2
		s-0.4,0.3-0.5,0.4c-0.1,0.2-0.2,0.4-0.3,0.6c-0.1,0.2-0.1,0.5-0.1,0.7c0,0.2,0,0.5,0.1,0.7s0.1,0.4,0.3,0.6
		c0.1,0.2,0.3,0.3,0.5,0.4s0.4,0.2,0.7,0.2c0.4,0,0.7-0.1,0.9-0.4c0.2-0.2,0.3-0.5,0.4-0.9h1.2c0,0.4-0.1,0.7-0.2,1
		s-0.3,0.5-0.5,0.7c-0.2,0.2-0.5,0.4-0.8,0.5c-0.3,0.1-0.6,0.2-1,0.2c-0.4,0-0.8-0.1-1.2-0.2c-0.3-0.2-0.6-0.4-0.9-0.6
		c-0.2-0.3-0.4-0.6-0.6-0.9s-0.2-0.7-0.2-1.2c0-0.4,0.1-0.8,0.2-1.2s0.3-0.7,0.6-1c0.2-0.3,0.5-0.5,0.9-0.6c0.3-0.2,0.7-0.2,1.2-0.2
		c0.3,0,0.6,0,0.9,0.1c0.3,0.1,0.5,0.2,0.8,0.4s0.4,0.4,0.5,0.6c0.1,0.3,0.2,0.5,0.3,0.9h-1.2C214.5,14.5,214.4,14.4,214.4,14.3z"/>
	<path class="st3" d="M217.9,12.7v2.2h2.3v-2.2h1.3v5.7h-1.3V16h-2.3v2.5h-1.3v-5.7H217.9z"/>
	<path class="st3" d="M226,12.7v5.7h-1.3v-5.7H226z"/>
	<path class="st3" d="M228.4,12.7l2.4,3.8h0v-3.8h1.2v5.7h-1.3l-2.4-3.8h0v3.8h-1.2v-5.7H228.4z"/>
	<path class="st3" d="M237.1,12.7v1.1h-2.8v1.3h2.4v1h-2.4v2.4h-1.3v-5.7H237.1z"/>
	<path class="st3" d="M237.8,14.4c0.1-0.4,0.3-0.7,0.6-1c0.2-0.3,0.5-0.5,0.9-0.6c0.3-0.2,0.7-0.2,1.2-0.2c0.4,0,0.8,0.1,1.2,0.2
		c0.3,0.2,0.6,0.4,0.9,0.6c0.2,0.3,0.4,0.6,0.6,1s0.2,0.8,0.2,1.2c0,0.4-0.1,0.8-0.2,1.2s-0.3,0.7-0.6,0.9c-0.2,0.3-0.5,0.5-0.9,0.6
		s-0.7,0.2-1.2,0.2c-0.4,0-0.8-0.1-1.2-0.2c-0.3-0.2-0.6-0.4-0.9-0.6c-0.2-0.3-0.4-0.6-0.6-0.9s-0.2-0.7-0.2-1.2
		C237.6,15.2,237.6,14.8,237.8,14.4z M238.9,16.3c0.1,0.2,0.1,0.4,0.3,0.6s0.3,0.3,0.5,0.4s0.4,0.2,0.7,0.2c0.3,0,0.5-0.1,0.7-0.2
		s0.4-0.3,0.5-0.4c0.1-0.2,0.2-0.4,0.3-0.6c0.1-0.2,0.1-0.5,0.1-0.7c0-0.3,0-0.5-0.1-0.7c-0.1-0.2-0.1-0.4-0.3-0.6
		c-0.1-0.2-0.3-0.3-0.5-0.4s-0.4-0.2-0.7-0.2c-0.3,0-0.5,0.1-0.7,0.2s-0.4,0.3-0.5,0.4s-0.2,0.4-0.3,0.6c-0.1,0.2-0.1,0.5-0.1,0.7
		C238.8,15.9,238.9,16.1,238.9,16.3z"/>
	<path class="st3" d="M250.3,12.7v1.1h-2.8v1.3h2.4v1h-2.4v2.4h-1.3v-5.7H250.3z"/>
	<path class="st3" d="M254.1,12.7c0.3,0,0.5,0,0.7,0.1c0.2,0.1,0.4,0.2,0.5,0.3c0.1,0.1,0.3,0.3,0.3,0.5c0.1,0.2,0.1,0.4,0.1,0.6
		c0,0.3-0.1,0.6-0.2,0.9c-0.1,0.2-0.4,0.4-0.7,0.6v0c0.2,0,0.3,0.1,0.4,0.2c0.1,0.1,0.2,0.2,0.2,0.3c0.1,0.1,0.1,0.3,0.1,0.4
		s0,0.3,0.1,0.4c0,0.1,0,0.2,0,0.3c0,0.1,0,0.2,0,0.4c0,0.1,0,0.2,0.1,0.4s0.1,0.2,0.1,0.3h-1.3c-0.1-0.2-0.1-0.4-0.1-0.6
		s0-0.5-0.1-0.7c0-0.3-0.1-0.5-0.3-0.7s-0.4-0.2-0.7-0.2h-1.3v2.2H251v-5.7H254.1z M253.6,15.3c0.3,0,0.5-0.1,0.6-0.2
		c0.1-0.1,0.2-0.3,0.2-0.6c0-0.3-0.1-0.5-0.2-0.6c-0.1-0.1-0.4-0.2-0.6-0.2h-1.4v1.6H253.6z"/>
	<path class="st3" d="M256.7,14.4c0.1-0.4,0.3-0.7,0.6-1s0.5-0.5,0.9-0.6c0.3-0.2,0.7-0.2,1.2-0.2c0.4,0,0.8,0.1,1.2,0.2
		c0.3,0.2,0.6,0.4,0.9,0.6s0.4,0.6,0.6,1c0.1,0.4,0.2,0.8,0.2,1.2c0,0.4-0.1,0.8-0.2,1.2c-0.1,0.4-0.3,0.7-0.6,0.9s-0.5,0.5-0.9,0.6
		s-0.7,0.2-1.2,0.2c-0.4,0-0.8-0.1-1.2-0.2c-0.3-0.2-0.6-0.4-0.9-0.6s-0.4-0.6-0.6-0.9s-0.2-0.7-0.2-1.2
		C256.5,15.2,256.6,14.8,256.7,14.4z M257.9,16.3c0.1,0.2,0.1,0.4,0.3,0.6c0.1,0.2,0.3,0.3,0.5,0.4s0.4,0.2,0.7,0.2
		c0.3,0,0.5-0.1,0.7-0.2s0.4-0.3,0.5-0.4c0.1-0.2,0.2-0.4,0.3-0.6s0.1-0.5,0.1-0.7c0-0.3,0-0.5-0.1-0.7c-0.1-0.2-0.1-0.4-0.3-0.6
		c-0.1-0.2-0.3-0.3-0.5-0.4s-0.4-0.2-0.7-0.2c-0.3,0-0.5,0.1-0.7,0.2s-0.4,0.3-0.5,0.4c-0.1,0.2-0.2,0.4-0.3,0.6
		c-0.1,0.2-0.1,0.5-0.1,0.7C257.8,15.9,257.8,16.1,257.9,16.3z"/>
	<path class="st3" d="M264.8,12.7l1.3,3.9h0l1.3-3.9h1.8v5.7H268v-4h0l-1.4,4h-1l-1.4-4h0v4H263v-5.7H264.8z"/>
</g>
<g>
	<path class="st0" d="M190,17c0.1,0.1,0.2,0.2,0.3,0.3s0.2,0.1,0.4,0.2s0.3,0.1,0.5,0.1c0.1,0,0.2,0,0.4,0c0.1,0,0.2-0.1,0.4-0.1
		c0.1-0.1,0.2-0.1,0.3-0.2s0.1-0.2,0.1-0.4c0-0.2,0-0.3-0.1-0.4c-0.1-0.1-0.2-0.2-0.4-0.2s-0.3-0.1-0.5-0.2s-0.4-0.1-0.6-0.2
		c-0.2-0.1-0.4-0.1-0.6-0.2s-0.4-0.2-0.5-0.3c-0.2-0.1-0.3-0.3-0.4-0.5c-0.1-0.2-0.1-0.4-0.1-0.7c0-0.3,0.1-0.5,0.2-0.8
		c0.1-0.2,0.3-0.4,0.5-0.5s0.4-0.3,0.7-0.3s0.5-0.1,0.8-0.1c0.3,0,0.6,0,0.9,0.1c0.3,0.1,0.5,0.2,0.7,0.3s0.4,0.3,0.5,0.6
		c0.1,0.2,0.2,0.5,0.2,0.8h-1.2c0-0.2,0-0.3-0.1-0.4c-0.1-0.1-0.1-0.2-0.2-0.3c-0.1-0.1-0.2-0.1-0.3-0.1c-0.1,0-0.3,0-0.4,0
		c-0.1,0-0.2,0-0.3,0c-0.1,0-0.2,0.1-0.3,0.1c-0.1,0.1-0.2,0.1-0.2,0.2c-0.1,0.1-0.1,0.2-0.1,0.3c0,0.1,0,0.2,0.1,0.3
		c0,0.1,0.1,0.1,0.3,0.2c0.1,0.1,0.3,0.1,0.5,0.2s0.5,0.1,0.9,0.2c0.1,0,0.3,0.1,0.4,0.1c0.2,0.1,0.4,0.1,0.6,0.3
		c0.2,0.1,0.3,0.3,0.5,0.5c0.1,0.2,0.2,0.5,0.2,0.8c0,0.3-0.1,0.5-0.2,0.7c-0.1,0.2-0.3,0.4-0.5,0.6c-0.2,0.2-0.4,0.3-0.7,0.4
		c-0.3,0.1-0.6,0.1-1,0.1c-0.3,0-0.6,0-0.9-0.1c-0.3-0.1-0.6-0.2-0.8-0.4c-0.2-0.2-0.4-0.4-0.5-0.6c-0.1-0.3-0.2-0.6-0.2-0.9h1.2
		C189.9,16.7,190,16.9,190,17z"/>
	<path class="st0" d="M198.5,12.7v1.1h-3V15h2.8v1h-2.8v1.4h3.1v1.1h-4.3v-5.7H198.5z"/>
	<path class="st0" d="M202.3,12.7l2.1,5.7h-1.3l-0.4-1.3h-2.1l-0.4,1.3h-1.3l2.2-5.7H202.3z M202.4,16.2l-0.7-2.1h0l-0.7,2.1H202.4z
		"/>
	<path class="st0" d="M208,12.7c0.3,0,0.5,0,0.7,0.1c0.2,0.1,0.4,0.2,0.5,0.3c0.1,0.1,0.3,0.3,0.3,0.5c0.1,0.2,0.1,0.4,0.1,0.6
		c0,0.3-0.1,0.6-0.2,0.9c-0.1,0.2-0.4,0.4-0.7,0.6v0c0.2,0,0.3,0.1,0.4,0.2c0.1,0.1,0.2,0.2,0.2,0.3c0.1,0.1,0.1,0.3,0.1,0.4
		s0,0.3,0.1,0.4c0,0.1,0,0.2,0,0.3c0,0.1,0,0.2,0,0.4c0,0.1,0,0.2,0.1,0.4s0.1,0.2,0.1,0.3h-1.3c-0.1-0.2-0.1-0.4-0.1-0.6
		s0-0.5-0.1-0.7c0-0.3-0.1-0.5-0.3-0.7s-0.4-0.2-0.7-0.2h-1.3v2.2h-1.3v-5.7H208z M207.6,15.3c0.3,0,0.5-0.1,0.6-0.2
		c0.1-0.1,0.2-0.3,0.2-0.6c0-0.3-0.1-0.5-0.2-0.6c-0.1-0.1-0.4-0.2-0.6-0.2h-1.4v1.6H207.6z"/>
	<path class="st0" d="M214.4,14.3c-0.1-0.1-0.2-0.2-0.3-0.3s-0.2-0.2-0.4-0.2c-0.1-0.1-0.3-0.1-0.4-0.1c-0.3,0-0.5,0.1-0.7,0.2
		s-0.4,0.3-0.5,0.4c-0.1,0.2-0.2,0.4-0.3,0.6c-0.1,0.2-0.1,0.5-0.1,0.7c0,0.2,0,0.5,0.1,0.7s0.1,0.4,0.3,0.6
		c0.1,0.2,0.3,0.3,0.5,0.4s0.4,0.2,0.7,0.2c0.4,0,0.7-0.1,0.9-0.4c0.2-0.2,0.3-0.5,0.4-0.9h1.2c0,0.4-0.1,0.7-0.2,1
		s-0.3,0.5-0.5,0.7c-0.2,0.2-0.5,0.4-0.8,0.5c-0.3,0.1-0.6,0.2-1,0.2c-0.4,0-0.8-0.1-1.2-0.2c-0.3-0.2-0.6-0.4-0.9-0.6
		c-0.2-0.3-0.4-0.6-0.6-0.9s-0.2-0.7-0.2-1.2c0-0.4,0.1-0.8,0.2-1.2s0.3-0.7,0.6-1c0.2-0.3,0.5-0.5,0.9-0.6c0.3-0.2,0.7-0.2,1.2-0.2
		c0.3,0,0.6,0,0.9,0.1c0.3,0.1,0.5,0.2,0.8,0.4s0.4,0.4,0.5,0.6c0.1,0.3,0.2,0.5,0.3,0.9h-1.2C214.5,14.5,214.4,14.4,214.4,14.3z"/>
	<path class="st0" d="M217.9,12.7v2.2h2.3v-2.2h1.3v5.7h-1.3V16h-2.3v2.5h-1.3v-5.7H217.9z"/>
	<path class="st0" d="M226,12.7v5.7h-1.3v-5.7H226z"/>
	<path class="st0" d="M228.4,12.7l2.4,3.8h0v-3.8h1.2v5.7h-1.3l-2.4-3.8h0v3.8h-1.2v-5.7H228.4z"/>
	<path class="st0" d="M237.1,12.7v1.1h-2.8v1.3h2.4v1h-2.4v2.4h-1.3v-5.7H237.1z"/>
	<path class="st0" d="M237.8,14.4c0.1-0.4,0.3-0.7,0.6-1c0.2-0.3,0.5-0.5,0.9-0.6c0.3-0.2,0.7-0.2,1.2-0.2c0.4,0,0.8,0.1,1.2,0.2
		c0.3,0.2,0.6,0.4,0.9,0.6c0.2,0.3,0.4,0.6,0.6,1s0.2,0.8,0.2,1.2c0,0.4-0.1,0.8-0.2,1.2s-0.3,0.7-0.6,0.9c-0.2,0.3-0.5,0.5-0.9,0.6
		s-0.7,0.2-1.2,0.2c-0.4,0-0.8-0.1-1.2-0.2c-0.3-0.2-0.6-0.4-0.9-0.6c-0.2-0.3-0.4-0.6-0.6-0.9s-0.2-0.7-0.2-1.2
		C237.6,15.2,237.6,14.8,237.8,14.4z M238.9,16.3c0.1,0.2,0.1,0.4,0.3,0.6s0.3,0.3,0.5,0.4s0.4,0.2,0.7,0.2c0.3,0,0.5-0.1,0.7-0.2
		s0.4-0.3,0.5-0.4c0.1-0.2,0.2-0.4,0.3-0.6c0.1-0.2,0.1-0.5,0.1-0.7c0-0.3,0-0.5-0.1-0.7c-0.1-0.2-0.1-0.4-0.3-0.6
		c-0.1-0.2-0.3-0.3-0.5-0.4s-0.4-0.2-0.7-0.2c-0.3,0-0.5,0.1-0.7,0.2s-0.4,0.3-0.5,0.4s-0.2,0.4-0.3,0.6c-0.1,0.2-0.1,0.5-0.1,0.7
		C238.8,15.9,238.9,16.1,238.9,16.3z"/>
	<path class="st0" d="M250.3,12.7v1.1h-2.8v1.3h2.4v1h-2.4v2.4h-1.3v-5.7H250.3z"/>
	<path class="st0" d="M254.1,12.7c0.3,0,0.5,0,0.7,0.1c0.2,0.1,0.4,0.2,0.5,0.3c0.1,0.1,0.3,0.3,0.3,0.5c0.1,0.2,0.1,0.4,0.1,0.6
		c0,0.3-0.1,0.6-0.2,0.9c-0.1,0.2-0.4,0.4-0.7,0.6v0c0.2,0,0.3,0.1,0.4,0.2c0.1,0.1,0.2,0.2,0.2,0.3c0.1,0.1,0.1,0.3,0.1,0.4
		s0,0.3,0.1,0.4c0,0.1,0,0.2,0,0.3c0,0.1,0,0.2,0,0.4c0,0.1,0,0.2,0.1,0.4s0.1,0.2,0.1,0.3h-1.3c-0.1-0.2-0.1-0.4-0.1-0.6
		s0-0.5-0.1-0.7c0-0.3-0.1-0.5-0.3-0.7s-0.4-0.2-0.7-0.2h-1.3v2.2H251v-5.7H254.1z M253.6,15.3c0.3,0,0.5-0.1,0.6-0.2
		c0.1-0.1,0.2-0.3,0.2-0.6c0-0.3-0.1-0.5-0.2-0.6c-0.1-0.1-0.4-0.2-0.6-0.2h-1.4v1.6H253.6z"/>
	<path class="st0" d="M256.7,14.4c0.1-0.4,0.3-0.7,0.6-1s0.5-0.5,0.9-0.6c0.3-0.2,0.7-0.2,1.2-0.2c0.4,0,0.8,0.1,1.2,0.2
		c0.3,0.2,0.6,0.4,0.9,0.6s0.4,0.6,0.6,1c0.1,0.4,0.2,0.8,0.2,1.2c0,0.4-0.1,0.8-0.2,1.2c-0.1,0.4-0.3,0.7-0.6,0.9s-0.5,0.5-0.9,0.6
		s-0.7,0.2-1.2,0.2c-0.4,0-0.8-0.1-1.2-0.2c-0.3-0.2-0.6-0.4-0.9-0.6s-0.4-0.6-0.6-0.9s-0.2-0.7-0.2-1.2
		C256.5,15.2,256.6,14.8,256.7,14.4z M257.9,16.3c0.1,0.2,0.1,0.4,0.3,0.6c0.1,0.2,0.3,0.3,0.5,0.4s0.4,0.2,0.7,0.2
		c0.3,0,0.5-0.1,0.7-0.2s0.4-0.3,0.5-0.4c0.1-0.2,0.2-0.4,0.3-0.6s0.1-0.5,0.1-0.7c0-0.3,0-0.5-0.1-0.7c-0.1-0.2-0.1-0.4-0.3-0.6
		c-0.1-0.2-0.3-0.3-0.5-0.4s-0.4-0.2-0.7-0.2c-0.3,0-0.5,0.1-0.7,0.2s-0.4,0.3-0.5,0.4c-0.1,0.2-0.2,0.4-0.3,0.6
		c-0.1,0.2-0.1,0.5-0.1,0.7C257.8,15.9,257.8,16.1,257.9,16.3z"/>
	<path class="st0" d="M264.8,12.7l1.3,3.9h0l1.3-3.9h1.8v5.7H268v-4h0l-1.4,4h-1l-1.4-4h0v4H263v-5.7H264.8z"/>
</g>
</svg>
